<svg width="25" height="26" viewBox="0 0 25 26" fill="none" xmlns="http://www.w3.org/2000/svg">
<path id="Vector" d="M15.3376 11.25L15.2228 11.3646L10.5548 16.0242C10.5546 16.0244 10.5544 16.0246 10.5542 16.0248C10.3299 16.2501 10.0455 16.3645 9.72926 16.3645C9.41288 16.3645 9.12846 16.25 8.90318 16.026L8.90172 16.0245L6.80466 13.9203C6.80456 13.9202 6.80447 13.9201 6.80437 13.92C6.57973 13.6952 6.46526 13.4108 6.46526 13.0945C6.46526 12.7781 6.57983 12.4935 6.80466 12.2687L6.8047 12.2687L11.4667 7.60785L11.5811 7.49351L11.3673 7.27969L6.59266 12.0543L6.59233 12.0546C6.28553 12.3608 6.14601 12.7018 6.14964 13.0988C6.15331 13.499 6.29785 13.844 6.60597 14.1528C6.60604 14.1529 6.60612 14.153 6.60619 14.153L6.79066 14.3375L7.10938 14.6562L6.79014 14.9744L4.58386 17.1735C4.58377 17.1736 4.58369 17.1737 4.5836 17.1737C4.57324 17.1841 4.56743 17.1917 4.56442 17.1961C4.56542 17.2013 4.5677 17.2103 4.5729 17.2235C4.57556 17.2303 4.57797 17.2356 4.57997 17.2395C4.58498 17.2401 4.59173 17.2405 4.60046 17.2405H5.97566C6.16332 17.2405 6.34711 17.2033 6.5302 17.1259C6.71926 17.0461 6.87686 16.9435 7.00775 16.82L7.82367 16.0113L8.14186 15.6959L8.45866 16.0127L8.68906 16.2431C8.998 16.552 9.33914 16.6933 9.73166 16.6933C10.1241 16.6933 10.4652 16.5521 10.774 16.2433L15.3376 11.25ZM15.3376 11.25L15.5491 11.4615M15.3376 11.25L15.5491 11.4615M16.1855 10.8251L21.7615 5.25709C22.0693 4.94931 22.2105 4.60829 22.2105 4.21449C22.2105 3.82173 22.0694 3.48053 21.7613 3.17171C21.7612 3.17166 21.7612 3.17161 21.7611 3.17156L19.6572 1.07484L19.657 1.07462C19.3481 0.766395 19.0069 0.625293 18.6141 0.625293C18.2213 0.625293 17.8806 0.766354 17.5727 1.07429L17.2545 0.756093L17.5727 1.07429L12.0037 6.64329L12.2199 6.85956L12.3221 6.7573L17.7609 1.31122L16.1855 10.8251ZM16.1855 10.8251L15.9696 10.6092L16.0725 10.5065L21.5181 5.06687L21.5183 5.06669C21.7498 4.8351 21.8577 4.53959 21.8577 4.21809C21.8577 3.89659 21.7498 3.60108 21.5183 3.3695L21.2001 3.68769L21.5183 3.36949L19.46 1.31122C19.4598 1.31106 19.4597 1.3109 19.4595 1.31074C19.2281 1.07825 18.932 0.970893 18.6105 0.970893C18.289 0.970893 17.993 1.07818 17.7617 1.31051L16.1855 10.8251ZM15.5491 11.4615L10.7743 16.2431L15.5491 11.4615ZM1.17216 24.4283L1.17104 24.4272C1.02153 24.2832 0.950061 24.1169 0.950061 23.8993C0.950061 23.7038 1.01738 23.536 1.17706 23.3763C1.33674 23.2166 1.50452 23.1493 1.70006 23.1493H23.3001C23.5001 23.1493 23.6693 23.2165 23.828 23.3703L23.8285 23.3709C23.9788 23.5161 24.0501 23.6828 24.0501 23.8993C24.0501 24.0948 23.9827 24.2626 23.8231 24.4223C23.6634 24.582 23.4956 24.6493 23.3001 24.6493H1.70006C1.50005 24.6493 1.33077 24.5821 1.17216 24.4283Z" stroke="#E3E3E3" stroke-width="0.9"/>
</svg>
