<svg width="27" height="27" viewBox="0 0 27 27" fill="none" xmlns="http://www.w3.org/2000/svg">
<g id="Group">
<path id="Vector" d="M22.9991 19.9645L26.0405 23.0059L22.9991 26.0473" stroke="#E3E3E3" stroke-width="1.87162" stroke-linecap="round" stroke-linejoin="round"/>
<path id="Vector_2" d="M4.14258 6.58243C4.78788 6.58243 5.40675 6.32609 5.86305 5.86979C6.31934 5.4135 6.57569 4.79463 6.57569 4.14933C6.57569 3.50402 6.31934 2.88515 5.86305 2.42886C5.40675 1.97256 4.78788 1.71622 4.14258 1.71622C3.49728 1.71622 2.87841 1.97256 2.42211 2.42886C1.96582 2.88515 1.70947 3.50402 1.70947 4.14933C1.70947 4.79463 1.96582 5.4135 2.42211 5.86979C2.87841 6.32609 3.49728 6.58243 4.14258 6.58243Z" stroke="#E3E3E3" stroke-width="1.87162" stroke-linejoin="round"/>
<path id="Vector_3" d="M6.57568 4.14932H11.4419C12.0872 4.14932 12.7061 4.40567 13.1624 4.86196C13.6187 5.31826 13.875 5.93713 13.875 6.58243V20.5728C13.875 21.2181 14.1314 21.837 14.5876 22.2933C15.0439 22.7496 15.6628 23.0059 16.3081 23.0059H26.0405" stroke="#E3E3E3" stroke-width="1.87162" stroke-linecap="round" stroke-linejoin="round"/>
</g>
</svg>
