<svg width="25" height="26" viewBox="0 0 25 26" fill="none" xmlns="http://www.w3.org/2000/svg">
<path id="Vector" d="M19.8095 12.8818C19.2718 12.8818 18.756 12.6681 18.3758 12.2879C17.9955 11.9076 17.7819 11.3919 17.7819 10.8542C17.7819 10.3164 17.9955 9.80069 18.3758 9.42044C18.756 9.0402 19.2718 8.82658 19.8095 8.82658C20.3473 8.82658 20.863 9.0402 21.2432 9.42044C21.6235 9.80069 21.8371 10.3164 21.8371 10.8542C21.8371 11.3919 21.6235 11.9076 21.2432 12.2879C20.863 12.6681 20.3473 12.8818 19.8095 12.8818ZM15.7543 7.47485C15.2166 7.47485 14.7009 7.26123 14.3206 6.88098C13.9404 6.50074 13.7267 5.98501 13.7267 5.44726C13.7267 4.90951 13.9404 4.39378 14.3206 4.01354C14.7009 3.63329 15.2166 3.41967 15.7543 3.41967C16.2921 3.41967 16.8078 3.63329 17.1881 4.01354C17.5683 4.39378 17.7819 4.90951 17.7819 5.44726C17.7819 5.98501 17.5683 6.50074 17.1881 6.88098C16.8078 7.26123 16.2921 7.47485 15.7543 7.47485ZM8.9957 7.47485C8.45795 7.47485 7.94222 7.26123 7.56197 6.88098C7.18173 6.50074 6.96811 5.98501 6.96811 5.44726C6.96811 4.90951 7.18173 4.39378 7.56197 4.01354C7.94222 3.63329 8.45795 3.41967 8.9957 3.41967C9.53345 3.41967 10.0492 3.63329 10.4294 4.01354C10.8097 4.39378 11.0233 4.90951 11.0233 5.44726C11.0233 5.98501 10.8097 6.50074 10.4294 6.88098C10.0492 7.26123 9.53345 7.47485 8.9957 7.47485ZM4.94052 12.8818C4.40277 12.8818 3.88704 12.6681 3.50679 12.2879C3.12655 11.9076 2.91293 11.3919 2.91293 10.8542C2.91293 10.3164 3.12655 9.80069 3.50679 9.42044C3.88704 9.0402 4.40277 8.82658 4.94052 8.82658C5.47827 8.82658 5.99399 9.0402 6.37424 9.42044C6.75449 9.80069 6.96811 10.3164 6.96811 10.8542C6.96811 11.3919 6.75449 11.9076 6.37424 12.2879C5.99399 12.6681 5.47827 12.8818 4.94052 12.8818ZM12.375 0.716217C9.14851 0.716217 6.05416 1.99794 3.77268 4.27942C1.4912 6.5609 0.209473 9.65526 0.209473 12.8818C0.209473 16.1083 1.4912 19.2026 3.77268 21.4841C6.05416 23.7656 9.14851 25.0473 12.375 25.0473C12.9128 25.0473 13.4285 24.8337 13.8087 24.4534C14.189 24.0732 14.4026 23.5575 14.4026 23.0197C14.4026 22.4925 14.1998 22.0194 13.8754 21.668C13.5645 21.303 13.3618 20.8299 13.3618 20.3163C13.3618 19.7785 13.5754 19.2628 13.9556 18.8825C14.3359 18.5023 14.8516 18.2887 15.3894 18.2887H17.7819C19.5744 18.2887 21.2935 17.5766 22.561 16.3091C23.8285 15.0416 24.5406 13.3225 24.5406 11.53C24.5406 5.5554 19.0931 0.716217 12.375 0.716217Z" fill="#D9D9D9"/>
</svg>
