<svg width="21" height="22" viewBox="0 0 21 22" fill="none" xmlns="http://www.w3.org/2000/svg">
<path id="Vector" d="M11.495 0.77243C10.9446 0.247081 10.0509 0.247081 9.50053 0.77243L3.86506 6.152C3.31473 6.67735 3.31473 7.53052 3.86506 8.05587C4.4154 8.58122 5.30915 8.58122 5.85949 8.05587L9.09108 4.97102V13.8263C9.09108 14.5702 9.72067 15.1712 10.4999 15.1712C11.2792 15.1712 11.9088 14.5702 11.9088 13.8263V4.97102L15.1404 8.05587C15.6907 8.58122 16.5845 8.58122 17.1348 8.05587C17.6852 7.53052 17.6852 6.67735 17.1348 6.152L11.4994 0.77243H11.495ZM3.45561 15.1712C3.45561 14.4273 2.82603 13.8263 2.04675 13.8263C1.26747 13.8263 0.637878 14.4273 0.637878 15.1712V17.861C0.637878 20.0885 2.53104 21.8957 4.86448 21.8957H16.1354C18.4689 21.8957 20.362 20.0885 20.362 17.861V15.1712C20.362 14.4273 19.7324 13.8263 18.9531 13.8263C18.1739 13.8263 17.5443 14.4273 17.5443 15.1712V17.861C17.5443 18.6049 16.9147 19.2059 16.1354 19.2059H4.86448C4.0852 19.2059 3.45561 18.6049 3.45561 17.861V15.1712Z" fill="#E3E3E3"/>
</svg>
