<svg width="25" height="21" viewBox="0 0 25 21" fill="none" xmlns="http://www.w3.org/2000/svg">
<g id="Group 1">
<path id="Polygon 1" d="M8.74722 0.0825195C9.41179 4.16487 12.612 7.36512 16.6944 8.02969C12.612 8.69426 9.41179 11.8945 8.74722 15.9769C8.08265 11.8945 4.8824 8.69426 0.800049 8.02969C4.8824 7.36512 8.08265 4.16487 8.74722 0.0825195Z" fill="#E3E3E3"/>
<path id="Polygon 2" d="M19.7849 11.562C20.1541 13.83 21.932 15.6079 24.2 15.9771C21.932 16.3463 20.1541 18.1242 19.7849 20.3922C19.4157 18.1242 17.6378 16.3463 15.3698 15.9771C17.6378 15.6079 19.4157 13.83 19.7849 11.562Z" fill="#E3E3E3"/>
<path id="Polygon 3" d="M20.668 0.965332C20.8895 2.32611 21.9563 3.39287 23.317 3.61439C21.9563 3.83591 20.8895 4.90266 20.668 6.26345C20.4465 4.90266 19.3797 3.83591 18.0189 3.61439C19.3797 3.39287 20.4465 2.32611 20.668 0.965332Z" fill="#E3E3E3"/>
</g>
</svg>
