<svg width="93" height="17" viewBox="0 0 93 17" fill="none" xmlns="http://www.w3.org/2000/svg">
<g id="Group 2">
<path id="Vector" d="M0.197099 15.0517L2.33607 0.612492C2.37178 0.370271 2.56315 0.192108 2.7884 0.192108H7.32639C7.53058 0.192108 7.71005 0.340243 7.76682 0.555439L9.32343 6.51187C9.53495 7.32161 9.62011 8.08631 9.64117 8.2945H9.76844C9.7895 7.62289 9.87466 7.16047 10.0441 6.51187L11.6007 0.555439C11.6565 0.340243 11.8369 0.192108 12.0411 0.192108H16.537C16.7613 0.192108 16.9527 0.370271 16.9884 0.611491L19.1475 15.0507C19.1933 15.3549 18.9781 15.6322 18.6961 15.6322H14.7148C14.4795 15.6322 14.2826 15.437 14.2588 15.1818L13.6646 8.71088C13.6224 8.1784 13.5803 7.83108 13.5803 7.18349H13.4952C13.432 7.57685 13.3047 8.1794 13.2195 8.47967L11.2253 15.2849C11.1648 15.4921 10.9881 15.6322 10.7894 15.6322H8.45539C8.25395 15.6322 8.07631 15.4881 8.01771 15.2779L6.23218 8.87303C6.08385 8.31752 5.97763 7.83108 5.95657 7.18349H5.80823C5.80823 7.48476 5.80823 8.08631 5.78717 8.38759L5.13157 15.1848C5.10684 15.439 4.91089 15.6332 4.67648 15.6332H0.650348C0.368326 15.6332 0.153147 15.3569 0.198014 15.0527L0.197099 15.0517Z" fill="#BA86FC" stroke="#BA86FC" stroke-width="0.0915655" stroke-miterlimit="10"/>
<path id="Vector_2" d="M25.1707 14.1048L24.9463 15.2378C24.9006 15.468 24.7147 15.6322 24.4986 15.6322H20.0897C19.7747 15.6322 19.554 15.2929 19.6575 14.9676L24.2321 0.528415C24.2962 0.327232 24.4693 0.192108 24.6643 0.192108H29.6913C29.8845 0.192108 30.0575 0.32523 30.1225 0.524411L34.8363 14.9636C34.9425 15.2899 34.7219 15.6322 34.4051 15.6322H29.9641C29.7563 15.6322 29.575 15.4791 29.5219 15.2599L29.2362 14.0828C29.1831 13.8636 29.0009 13.7104 28.7939 13.7104H25.6184C25.4032 13.7104 25.2165 13.8746 25.1707 14.1048ZM27.3243 5.35382H27.1338C27.1128 6.00241 27.0276 6.53389 26.9013 7.0904L26.2026 10.0531H28.2564L27.5999 7.0904C27.4726 6.48885 27.3884 5.90932 27.3243 5.35382Z" fill="#BA86FC" stroke="#BA86FC" stroke-width="0.0915655" stroke-miterlimit="10"/>
<path id="Vector_3" d="M39.6472 0.192108H43.7713C44.024 0.192108 44.2291 0.416313 44.2291 0.692565V10.9559C44.2291 12.6455 43.5094 13.7805 42.9582 14.4051C42.026 15.47 40.735 15.9795 39.4219 15.9795C38.4477 15.9795 37.0925 15.7483 35.7794 14.7294L35.5112 14.5232C35.3344 14.3871 35.2685 14.1348 35.3537 13.9176L36.924 9.89896C36.9735 9.77185 37.1419 9.78286 37.1777 9.91498C37.2619 10.2393 37.4533 10.6787 37.6437 10.8638C37.7921 11.026 38.0036 11.1421 38.3002 11.1421C38.5548 11.1421 38.7453 11.05 38.8936 10.8638C39.1692 10.5165 39.1903 9.96102 39.1903 9.72981V0.692565C39.1903 0.416313 39.3954 0.192108 39.6481 0.192108H39.6472Z" fill="#BA86FC" stroke="#BA86FC" stroke-width="0.0915655" stroke-miterlimit="10"/>
<path id="Vector_4" d="M44.7346 15.0517L46.8735 0.612492C46.9093 0.370271 47.1006 0.192108 47.3259 0.192108H51.8639C52.0681 0.192108 52.2475 0.340243 52.3043 0.555439L53.8609 6.51187C54.0724 7.32161 54.1576 8.08631 54.1786 8.2945H54.3059C54.327 7.62289 54.4121 7.16047 54.5815 6.51187L56.1381 0.555439C56.194 0.340243 56.3744 0.192108 56.5786 0.192108H61.0754C61.2997 0.192108 61.4911 0.370271 61.5268 0.611491L63.685 15.0507C63.7308 15.3549 63.5156 15.6322 63.2336 15.6322H59.2523C59.017 15.6322 58.8201 15.437 58.7963 15.1818L58.202 8.71088C58.1599 8.1784 58.1178 7.83108 58.1178 7.18349H58.0336C57.9704 7.57685 57.8431 8.1794 57.7579 8.47967L55.7636 15.2849C55.7032 15.4921 55.5265 15.6322 55.3278 15.6322H52.9938C52.7923 15.6322 52.6147 15.4881 52.5561 15.2779L50.7706 8.87303C50.6222 8.31752 50.5169 7.83108 50.495 7.18349H50.3466C50.3466 7.48476 50.3466 8.08631 50.3256 8.38759L49.67 15.1848C49.6452 15.439 49.4493 15.6332 49.2149 15.6332H45.1878C44.9058 15.6332 44.6906 15.3569 44.7355 15.0527L44.7346 15.0517Z" fill="#BA86FC" stroke="#BA86FC" stroke-width="0.0915655" stroke-miterlimit="10"/>
<path id="Vector_5" d="M69.7997 14.1048L69.5754 15.2378C69.5296 15.468 69.3437 15.6322 69.1276 15.6322H64.7187C64.4037 15.6322 64.1831 15.2929 64.2865 14.9676L68.8612 0.528415C68.9252 0.327232 69.0983 0.192108 69.2933 0.192108H74.3203C74.5135 0.192108 74.6865 0.32523 74.7516 0.524411L79.4654 14.9636C79.5716 15.2899 79.3509 15.6322 79.0341 15.6322H74.5932C74.3853 15.6322 74.204 15.4791 74.1509 15.2599L73.8652 14.0828C73.8121 13.8636 73.6299 13.7104 73.4229 13.7104H70.2475C70.0323 13.7104 69.8455 13.8746 69.7997 14.1048ZM71.9533 5.35382H71.7629C71.7418 6.00241 71.6566 6.53389 71.5303 7.0904L70.8316 10.0531H72.8855L72.2289 7.0904C72.1017 6.48885 72.0174 5.90932 71.9533 5.35382Z" fill="#BA86FC" stroke="#BA86FC" stroke-width="0.0915655" stroke-miterlimit="10"/>
<path id="Vector_6" d="M80.4662 15.1317V0.692565C80.4662 0.416313 80.6713 0.192108 80.924 0.192108H87.243C89.4881 0.192108 90.7792 1.18702 91.3726 1.81259C92.5373 3.06273 92.8129 4.63716 92.8129 5.86328C92.8129 7.0894 92.5583 8.59478 91.4156 9.72881C90.293 10.8398 89.023 10.9789 87.9425 10.9789H85.9226C85.6699 10.9789 85.4648 11.2032 85.4648 11.4794V15.1317C85.4648 15.408 85.2596 15.6322 85.0069 15.6322H80.9249C80.6722 15.6322 80.4671 15.408 80.4671 15.1317H80.4662ZM85.4638 7.0904H86.3319C86.5864 7.0904 87.1157 7.06738 87.4755 6.67402C87.666 6.48885 87.8143 6.18758 87.8143 5.72516C87.8143 5.23871 87.6239 4.93844 87.4334 4.77629C87.2008 4.5681 86.7769 4.42897 86.396 4.42897H85.4638V7.0914V7.0904Z" fill="#BA86FC" stroke="#BA86FC" stroke-width="0.0915655" stroke-miterlimit="10"/>
</g>
</svg>
