<svg width="89" height="55" viewBox="0 0 89 55" fill="none" xmlns="http://www.w3.org/2000/svg">
<g id="Group">
<g id="Group_2">
<path id="Vector" d="M16.5541 29.7681V37.9826C15.5646 36.8361 14.0976 36.1104 12.4615 36.1104C10.8253 36.1104 9.23717 36.8952 8.25 38.1237V29.809C9.56394 29.3381 10.983 29.0811 12.4615 29.0811C13.9399 29.0811 15.2744 29.3222 16.5541 29.7681Z" fill="#FCF6BD"/>
<path id="Vector_2" d="M24.9163 41.4836C24.9163 41.8931 24.8957 42.2981 24.8569 42.6984C24.377 47.5871 21.0499 51.6455 16.5482 53.1992C15.2686 53.6451 13.8884 53.8863 12.4556 53.8863C11.0228 53.8863 9.55808 53.6315 8.24414 53.1583V44.8459C9.23359 46.0743 10.7532 46.8592 12.4556 46.8592C14.158 46.8592 15.5588 46.1335 16.5482 44.9892C17.364 44.0474 17.853 42.8235 17.853 41.4859C17.853 40.1483 17.364 38.9244 16.5482 37.9826V29.7703C21.0499 31.3263 24.377 35.3824 24.8569 40.2711C24.8957 40.6692 24.9163 41.0742 24.9163 41.4859V41.4836Z" fill="#BA86FC"/>
<path id="Vector_3" d="M8.24696 29.809V38.1237C7.5043 39.045 7.06099 40.2143 7.06099 41.4837C7.06099 42.7531 7.5043 43.9246 8.24696 44.8437V53.1583C3.43909 51.4408 0 46.8615 0 41.4837C0 36.1059 3.43909 31.5266 8.24696 29.809Z" fill="#A9DEF9"/>
</g>
<g id="Group_3">
<path id="Vector_4" d="M45.7803 53.8863C51.3156 53.8863 55.8028 49.4192 55.8028 43.9087C55.8028 38.3982 51.3156 33.9311 45.7803 33.9311C40.245 33.9311 35.7578 38.3982 35.7578 43.9087C35.7578 49.4192 40.245 53.8863 45.7803 53.8863Z" fill="#BA86FC" stroke="#BA86FC" stroke-miterlimit="10"/>
<path id="Vector_5" d="M45.3311 53.0856C50.8664 53.0856 55.3536 48.6184 55.3536 43.108C55.3536 37.5975 50.8664 33.1304 45.3311 33.1304C39.7958 33.1304 35.3086 37.5975 35.3086 43.108C35.3086 48.6184 39.7958 53.0856 45.3311 53.0856Z" fill="#BA86FC" stroke="#BA86FC" stroke-miterlimit="10"/>
<path id="Vector_6" d="M44.8799 52.287C50.4152 52.287 54.9024 47.8199 54.9024 42.3094C54.9024 36.799 50.4152 32.3318 44.8799 32.3318C39.3446 32.3318 34.8574 36.799 34.8574 42.3094C34.8574 47.8199 39.3446 52.287 44.8799 52.287Z" fill="#BA86FC" stroke="#BA86FC" stroke-miterlimit="10"/>
<path id="Vector_7" d="M44.4326 51.4863C49.9679 51.4863 54.4551 47.0192 54.4551 41.5087C54.4551 35.9982 49.9679 31.5311 44.4326 31.5311C38.8974 31.5311 34.4102 35.9982 34.4102 41.5087C34.4102 47.0192 38.8974 51.4863 44.4326 51.4863Z" fill="#BA86FC" stroke="#BA86FC" stroke-miterlimit="10"/>
<path id="Vector_8" d="M43.9815 50.6855C49.5167 50.6855 54.004 46.2184 54.004 40.7079C54.004 35.1975 49.5167 30.7303 43.9815 30.7303C38.4462 30.7303 33.959 35.1975 33.959 40.7079C33.959 46.2184 38.4462 50.6855 43.9815 50.6855Z" fill="#BA86FC" stroke="#BA86FC" stroke-miterlimit="10"/>
<path id="Vector_9" d="M43.5323 49.8848C49.0675 49.8848 53.5548 45.4176 53.5548 39.9072C53.5548 34.3967 49.0675 29.9296 43.5323 29.9296C37.997 29.9296 33.5098 34.3967 33.5098 39.9072C33.5098 45.4176 37.997 49.8848 43.5323 49.8848Z" fill="#BA86FC" stroke="#BA86FC" stroke-miterlimit="10"/>
<path id="Vector_10" d="M43.0811 49.084C48.6164 49.084 53.1036 44.6169 53.1036 39.1064C53.1036 33.596 48.6164 29.1288 43.0811 29.1288C37.5458 29.1288 33.0586 33.596 33.0586 39.1064C33.0586 44.6169 37.5458 49.084 43.0811 49.084Z" fill="#BA86FC" stroke="#BA86FC" stroke-miterlimit="10"/>
<path id="Vector_11" d="M42.6319 48.2833C48.1671 48.2833 52.6544 43.8161 52.6544 38.3057C52.6544 32.7952 48.1671 28.3281 42.6319 28.3281C37.0966 28.3281 32.6094 32.7952 32.6094 38.3057C32.6094 43.8161 37.0966 48.2833 42.6319 48.2833Z" fill="#BA86FC" stroke="#BA86FC" stroke-miterlimit="10"/>
<path id="Vector_12" d="M42.1807 47.4825C47.716 47.4825 52.2032 43.0154 52.2032 37.5049C52.2032 31.9945 47.716 27.5273 42.1807 27.5273C36.6454 27.5273 32.1582 31.9945 32.1582 37.5049C32.1582 43.0154 36.6454 47.4825 42.1807 47.4825Z" fill="#BA86FC" stroke="#BA86FC" stroke-miterlimit="10"/>
<path id="Vector_13" d="M41.7315 46.684C47.2667 46.684 51.754 42.2169 51.754 36.7064C51.754 31.1959 47.2667 26.7288 41.7315 26.7288C36.1962 26.7288 31.709 31.1959 31.709 36.7064C31.709 42.2169 36.1962 46.684 41.7315 46.684Z" fill="#BA86FC" stroke="#BA86FC" stroke-miterlimit="10"/>
<path id="Vector_14" d="M41.2803 45.8833C46.8156 45.8833 51.3028 41.4162 51.3028 35.9057C51.3028 30.3952 46.8156 25.9281 41.2803 25.9281C35.745 25.9281 31.2578 30.3952 31.2578 35.9057C31.2578 41.4162 35.745 45.8833 41.2803 45.8833Z" fill="#BA86FC" stroke="#BA86FC" stroke-miterlimit="10"/>
<path id="Vector_15" d="M40.8311 45.0825C46.3664 45.0825 50.8536 40.6154 50.8536 35.1049C50.8536 29.5944 46.3664 25.1273 40.8311 25.1273C35.2958 25.1273 30.8086 29.5944 30.8086 35.1049C30.8086 40.6154 35.2958 45.0825 40.8311 45.0825Z" fill="#BA86FC" stroke="#BA86FC" stroke-miterlimit="10"/>
<path id="Vector_16" d="M40.3838 44.2818C45.9191 44.2818 50.4063 39.8147 50.4063 34.3042C50.4063 28.7937 45.9191 24.3266 40.3838 24.3266C34.8486 24.3266 30.3613 28.7937 30.3613 34.3042C30.3613 39.8147 34.8486 44.2818 40.3838 44.2818Z" fill="#BA86FC" stroke="#BA86FC" stroke-miterlimit="10"/>
<path id="Vector_17" d="M39.9326 43.481C45.4679 43.481 49.9551 39.0139 49.9551 33.5034C49.9551 27.9929 45.4679 23.5258 39.9326 23.5258C34.3974 23.5258 29.9102 27.9929 29.9102 33.5034C29.9102 39.0139 34.3974 43.481 39.9326 43.481Z" fill="#BA86FC" stroke="#BA86FC" stroke-miterlimit="10"/>
<path id="Vector_18" d="M39.4834 42.6803C45.0187 42.6803 49.5059 38.2132 49.5059 32.7027C49.5059 27.1922 45.0187 22.7251 39.4834 22.7251C33.9482 22.7251 29.4609 27.1922 29.4609 32.7027C29.4609 38.2132 33.9482 42.6803 39.4834 42.6803Z" fill="#BA86FC" stroke="#BA86FC" stroke-miterlimit="10"/>
<path id="Vector_19" d="M39.0323 41.8795C44.5675 41.8795 49.0548 37.4124 49.0548 31.9019C49.0548 26.3914 44.5675 21.9243 39.0323 21.9243C33.497 21.9243 29.0098 26.3914 29.0098 31.9019C29.0098 37.4124 33.497 41.8795 39.0323 41.8795Z" fill="#BA86FC" stroke="#BA86FC" stroke-miterlimit="10"/>
<path id="Vector_20" d="M38.583 41.081C44.1183 41.081 48.6055 36.6139 48.6055 31.1034C48.6055 25.593 44.1183 21.1259 38.583 21.1259C33.0478 21.1259 28.5605 25.593 28.5605 31.1034C28.5605 36.6139 33.0478 41.081 38.583 41.081Z" fill="#BA86FC" stroke="#BA86FC" stroke-miterlimit="10"/>
<path id="Vector_21" d="M38.1319 40.2803C43.6671 40.2803 48.1544 35.8131 48.1544 30.3027C48.1544 24.7922 43.6671 20.3251 38.1319 20.3251C32.5966 20.3251 28.1094 24.7922 28.1094 30.3027C28.1094 35.8131 32.5966 40.2803 38.1319 40.2803Z" fill="#BA86FC" stroke="#BA86FC" stroke-miterlimit="10"/>
<path id="Vector_22" d="M37.6826 39.4795C43.2179 39.4795 47.7051 35.0124 47.7051 29.5019C47.7051 23.9914 43.2179 19.5243 37.6826 19.5243C32.1474 19.5243 27.6602 23.9914 27.6602 29.5019C27.6602 35.0124 32.1474 39.4795 37.6826 39.4795Z" fill="#BA86FC" stroke="#BA86FC" stroke-miterlimit="10"/>
<path id="Vector_23" d="M37.2315 38.6788C42.7667 38.6788 47.254 34.2116 47.254 28.7012C47.254 23.1907 42.7667 18.7236 37.2315 18.7236C31.6962 18.7236 27.209 23.1907 27.209 28.7012C27.209 34.2116 31.6962 38.6788 37.2315 38.6788Z" fill="#BA86FC" stroke="#BA86FC" stroke-miterlimit="10"/>
<path id="Vector_24" d="M36.7823 37.878C42.3175 37.878 46.8048 33.4109 46.8048 27.9004C46.8048 22.3899 42.3175 17.9228 36.7823 17.9228C31.247 17.9228 26.7598 22.3899 26.7598 27.9004C26.7598 33.4109 31.247 37.878 36.7823 37.878Z" fill="#BA86FC" stroke="#BA86FC" stroke-miterlimit="10"/>
<path id="Vector_25" d="M36.333 37.0773C41.8683 37.0773 46.3555 32.6101 46.3555 27.0997C46.3555 21.5892 41.8683 17.1221 36.333 17.1221C30.7978 17.1221 26.3105 21.5892 26.3105 27.0997C26.3105 32.6101 30.7978 37.0773 36.333 37.0773Z" fill="#BA86FC" stroke="#BA86FC" stroke-miterlimit="10"/>
<path id="Vector_26" d="M35.8838 36.2765C41.4191 36.2765 45.9063 31.8094 45.9063 26.2989C45.9063 20.7884 41.4191 16.3213 35.8838 16.3213C30.3486 16.3213 25.8613 20.7884 25.8613 26.2989C25.8613 31.8094 30.3486 36.2765 35.8838 36.2765Z" fill="#BA86FC" stroke="#BA86FC" stroke-miterlimit="10"/>
<path id="Vector_27" d="M35.4326 35.478C40.9679 35.478 45.4551 31.0109 45.4551 25.5004C45.4551 19.9899 40.9679 15.5228 35.4326 15.5228C29.8974 15.5228 25.4102 19.9899 25.4102 25.5004C25.4102 31.0109 29.8974 35.478 35.4326 35.478Z" fill="#BA86FC" stroke="#BA86FC" stroke-miterlimit="10"/>
<path id="Vector_28" d="M34.9834 34.6772C40.5187 34.6772 45.0059 30.2101 45.0059 24.6996C45.0059 19.1892 40.5187 14.722 34.9834 14.722C29.4482 14.722 24.9609 19.1892 24.9609 24.6996C24.9609 30.2101 29.4482 34.6772 34.9834 34.6772Z" fill="#BA86FC" stroke="#BA86FC" stroke-miterlimit="10"/>
<path id="Vector_29" d="M34.5323 33.8765C40.0675 33.8765 44.5547 29.4094 44.5547 23.8989C44.5547 18.3884 40.0675 13.9213 34.5323 13.9213C28.997 13.9213 24.5098 18.3884 24.5098 23.8989C24.5098 29.4094 28.997 33.8765 34.5323 33.8765Z" fill="#BA86FC" stroke="#BA86FC" stroke-miterlimit="10"/>
<path id="Vector_30" d="M34.083 33.0757C39.6183 33.0757 44.1055 28.6086 44.1055 23.0981C44.1055 17.5877 39.6183 13.1205 34.083 13.1205C28.5478 13.1205 24.0605 17.5877 24.0605 23.0981C24.0605 28.6086 28.5478 33.0757 34.083 33.0757Z" fill="#BA86FC" stroke="#BA86FC" stroke-miterlimit="10"/>
<path id="Vector_31" d="M33.6319 32.275C39.1671 32.275 43.6544 27.8079 43.6544 22.2974C43.6544 16.7869 39.1671 12.3198 33.6319 12.3198C28.0966 12.3198 23.6094 16.7869 23.6094 22.2974C23.6094 27.8079 28.0966 32.275 33.6319 32.275Z" fill="#BA86FC" stroke="#BA86FC" stroke-miterlimit="10"/>
<path id="Vector_32" d="M33.1827 31.4742C38.7179 31.4742 43.2051 27.0071 43.2051 21.4966C43.2051 15.9862 38.7179 11.519 33.1827 11.519C27.6474 11.519 23.1602 15.9862 23.1602 21.4966C23.1602 27.0071 27.6474 31.4742 33.1827 31.4742Z" fill="#BA86FC" stroke="#BA86FC" stroke-miterlimit="10"/>
<path id="Vector_33" d="M32.7354 30.6735C38.2707 30.6735 42.7579 26.2063 42.7579 20.6959C42.7579 15.1854 38.2707 10.7183 32.7354 10.7183C27.2001 10.7183 22.7129 15.1854 22.7129 20.6959C22.7129 26.2063 27.2001 30.6735 32.7354 30.6735Z" fill="#BA86FC" stroke="#BA86FC" stroke-miterlimit="10"/>
<path id="Vector_34" d="M32.2842 29.875C37.8195 29.875 42.3067 25.4079 42.3067 19.8974C42.3067 14.3869 37.8195 9.9198 32.2842 9.9198C26.7489 9.9198 22.2617 14.3869 22.2617 19.8974C22.2617 25.4079 26.7489 29.875 32.2842 29.875Z" fill="#BA86FC" stroke="#BA86FC" stroke-miterlimit="10"/>
<path id="Vector_35" d="M31.835 29.0742C37.3703 29.0742 41.8575 24.6071 41.8575 19.0966C41.8575 13.5861 37.3703 9.11902 31.835 9.11902C26.2997 9.11902 21.8125 13.5861 21.8125 19.0966C21.8125 24.6071 26.2997 29.0742 31.835 29.0742Z" fill="#BA86FC" stroke="#BA86FC" stroke-miterlimit="10"/>
<path id="Vector_36" d="M31.3838 28.2735C36.9191 28.2735 41.4063 23.8064 41.4063 18.2959C41.4063 12.7854 36.9191 8.3183 31.3838 8.3183C25.8485 8.3183 21.3613 12.7854 21.3613 18.2959C21.3613 23.8064 25.8485 28.2735 31.3838 28.2735Z" fill="#BA86FC" stroke="#BA86FC" stroke-miterlimit="10"/>
<path id="Vector_37" d="M30.9346 27.4727C36.4699 27.4727 40.9571 23.0056 40.9571 17.4951C40.9571 11.9846 36.4699 7.51752 30.9346 7.51752C25.3993 7.51752 20.9121 11.9846 20.9121 17.4951C20.9121 23.0056 25.3993 27.4727 30.9346 27.4727Z" fill="#BA86FC" stroke="#BA86FC" stroke-miterlimit="10"/>
<path id="Vector_38" d="M30.4834 26.672C36.0187 26.672 40.5059 22.2049 40.5059 16.6944C40.5059 11.1839 36.0187 6.7168 30.4834 6.7168C24.9482 6.7168 20.4609 11.1839 20.4609 16.6944C20.4609 22.2049 24.9482 26.672 30.4834 26.672Z" fill="#BA86FC" stroke="#BA86FC" stroke-miterlimit="10"/>
<path id="Vector_39" d="M30.0342 25.8712C35.5695 25.8712 40.0567 21.4041 40.0567 15.8936C40.0567 10.3831 35.5695 5.91602 30.0342 5.91602C24.4989 5.91602 20.0117 10.3831 20.0117 15.8936C20.0117 21.4041 24.4989 25.8712 30.0342 25.8712Z" fill="#BA86FC" stroke="#BA86FC" stroke-miterlimit="10"/>
<path id="Vector_40" d="M29.583 25.0705C35.1183 25.0705 39.6055 20.6034 39.6055 15.0929C39.6055 9.58242 35.1183 5.1153 29.583 5.1153C24.0478 5.1153 19.5605 9.58242 19.5605 15.0929C19.5605 20.6034 24.0478 25.0705 29.583 25.0705Z" fill="#BA86FC" stroke="#BA86FC" stroke-miterlimit="10"/>
<path id="Vector_41" d="M29.1338 24.272C34.6691 24.272 39.1563 19.8048 39.1563 14.2944C39.1563 8.78389 34.6691 4.31677 29.1338 4.31677C23.5986 4.31677 19.1113 8.78389 19.1113 14.2944C19.1113 19.8048 23.5986 24.272 29.1338 24.272Z" fill="#BA86FC" stroke="#BA86FC" stroke-miterlimit="10"/>
<path id="Vector_42" d="M28.6846 23.4712C34.2199 23.4712 38.7071 19.0041 38.7071 13.4936C38.7071 7.98317 34.2199 3.51605 28.6846 3.51605C23.1493 3.51605 18.6621 7.98317 18.6621 13.4936C18.6621 19.0041 23.1493 23.4712 28.6846 23.4712Z" fill="#BA86FC" stroke="#BA86FC" stroke-miterlimit="10"/>
<path id="Vector_43" d="M28.2354 22.6705C33.7707 22.6705 38.2579 18.2033 38.2579 12.6929C38.2579 7.18239 33.7707 2.71527 28.2354 2.71527C22.7001 2.71527 18.2129 7.18239 18.2129 12.6929C18.2129 18.2033 22.7001 22.6705 28.2354 22.6705Z" fill="#BA86FC" stroke="#BA86FC" stroke-miterlimit="10"/>
<path id="Vector_44" d="M27.7842 21.8697C33.3195 21.8697 37.8067 17.4026 37.8067 11.8921C37.8067 6.38167 33.3195 1.91455 27.7842 1.91455C22.2489 1.91455 17.7617 6.38167 17.7617 11.8921C17.7617 17.4026 22.2489 21.8697 27.7842 21.8697Z" fill="#BA86FC" stroke="#BA86FC" stroke-miterlimit="10"/>
<path id="Vector_45" d="M27.335 21.069C32.8703 21.069 37.3575 16.6018 37.3575 11.0914C37.3575 5.58089 32.8703 1.11377 27.335 1.11377C21.7997 1.11377 17.3125 5.58089 17.3125 11.0914C17.3125 16.6018 21.7997 21.069 27.335 21.069Z" fill="#BA86FC" stroke="#BA86FC" stroke-miterlimit="10"/>
</g>
<g id="Group_4">
<path id="Vector_46" d="M78.4561 53.8863C83.9914 53.8863 88.4786 49.4192 88.4786 43.9087C88.4786 38.3982 83.9914 33.9311 78.4561 33.9311C72.9208 33.9311 68.4336 38.3982 68.4336 43.9087C68.4336 49.4192 72.9208 53.8863 78.4561 53.8863Z" fill="#BA86FC" stroke="#BA86FC" stroke-miterlimit="10"/>
<path id="Vector_47" d="M78.0127 53.0856C83.548 53.0856 88.0352 48.6184 88.0352 43.108C88.0352 37.5975 83.548 33.1304 78.0127 33.1304C72.4775 33.1304 67.9902 37.5975 67.9902 43.108C67.9902 48.6184 72.4775 53.0856 78.0127 53.0856Z" fill="#BA86FC" stroke="#BA86FC" stroke-miterlimit="10"/>
<path id="Vector_48" d="M77.5674 52.287C83.1027 52.287 87.5899 47.8199 87.5899 42.3094C87.5899 36.799 83.1027 32.3318 77.5674 32.3318C72.0321 32.3318 67.5449 36.799 67.5449 42.3094C67.5449 47.8199 72.0321 52.287 77.5674 52.287Z" fill="#BA86FC" stroke="#BA86FC" stroke-miterlimit="10"/>
<path id="Vector_49" d="M77.1241 51.4863C82.6593 51.4863 87.1465 47.0192 87.1465 41.5087C87.1465 35.9982 82.6593 31.5311 77.1241 31.5311C71.5888 31.5311 67.1016 35.9982 67.1016 41.5087C67.1016 47.0192 71.5888 51.4863 77.1241 51.4863Z" fill="#BA86FC" stroke="#BA86FC" stroke-miterlimit="10"/>
<path id="Vector_50" d="M76.6787 50.6855C82.214 50.6855 86.7012 46.2184 86.7012 40.7079C86.7012 35.1975 82.214 30.7303 76.6787 30.7303C71.1435 30.7303 66.6562 35.1975 66.6562 40.7079C66.6562 46.2184 71.1435 50.6855 76.6787 50.6855Z" fill="#BA86FC" stroke="#BA86FC" stroke-miterlimit="10"/>
<path id="Vector_51" d="M76.2354 49.8848C81.7706 49.8848 86.2579 45.4176 86.2579 39.9072C86.2579 34.3967 81.7706 29.9296 76.2354 29.9296C70.7001 29.9296 66.2129 34.3967 66.2129 39.9072C66.2129 45.4176 70.7001 49.8848 76.2354 49.8848Z" fill="#BA86FC" stroke="#BA86FC" stroke-miterlimit="10"/>
<path id="Vector_52" d="M75.792 49.084C81.3273 49.084 85.8145 44.6169 85.8145 39.1064C85.8145 33.596 81.3273 29.1288 75.792 29.1288C70.2568 29.1288 65.7695 33.596 65.7695 39.1064C65.7695 44.6169 70.2568 49.084 75.792 49.084Z" fill="#BA86FC" stroke="#BA86FC" stroke-miterlimit="10"/>
<path id="Vector_53" d="M75.3467 48.2833C80.882 48.2833 85.3692 43.8161 85.3692 38.3057C85.3692 32.7952 80.882 28.3281 75.3467 28.3281C69.8114 28.3281 65.3242 32.7952 65.3242 38.3057C65.3242 43.8161 69.8114 48.2833 75.3467 48.2833Z" fill="#BA86FC" stroke="#BA86FC" stroke-miterlimit="10"/>
<path id="Vector_54" d="M74.9034 47.4825C80.4386 47.4825 84.9258 43.0154 84.9258 37.5049C84.9258 31.9945 80.4386 27.5273 74.9034 27.5273C69.3681 27.5273 64.8809 31.9945 64.8809 37.5049C64.8809 43.0154 69.3681 47.4825 74.9034 47.4825Z" fill="#BA86FC" stroke="#BA86FC" stroke-miterlimit="10"/>
<path id="Vector_55" d="M74.458 46.684C79.9933 46.684 84.4805 42.2169 84.4805 36.7064C84.4805 31.1959 79.9933 26.7288 74.458 26.7288C68.9228 26.7288 64.4355 31.1959 64.4355 36.7064C64.4355 42.2169 68.9228 46.684 74.458 46.684Z" fill="#BA86FC" stroke="#BA86FC" stroke-miterlimit="10"/>
<path id="Vector_56" d="M74.0147 45.8833C79.5499 45.8833 84.0372 41.4162 84.0372 35.9057C84.0372 30.3952 79.5499 25.9281 74.0147 25.9281C68.4794 25.9281 63.9922 30.3952 63.9922 35.9057C63.9922 41.4162 68.4794 45.8833 74.0147 45.8833Z" fill="#BA86FC" stroke="#BA86FC" stroke-miterlimit="10"/>
<path id="Vector_57" d="M73.5674 45.0825C79.1027 45.0825 83.5899 40.6154 83.5899 35.1049C83.5899 29.5944 79.1027 25.1273 73.5674 25.1273C68.0321 25.1273 63.5449 29.5944 63.5449 35.1049C63.5449 40.6154 68.0321 45.0825 73.5674 45.0825Z" fill="#BA86FC" stroke="#BA86FC" stroke-miterlimit="10"/>
<path id="Vector_58" d="M73.1241 44.2818C78.6593 44.2818 83.1465 39.8147 83.1465 34.3042C83.1465 28.7937 78.6593 24.3266 73.1241 24.3266C67.5888 24.3266 63.1016 28.7937 63.1016 34.3042C63.1016 39.8147 67.5888 44.2818 73.1241 44.2818Z" fill="#BA86FC" stroke="#BA86FC" stroke-miterlimit="10"/>
<path id="Vector_59" d="M72.6787 43.481C78.214 43.481 82.7012 39.0139 82.7012 33.5034C82.7012 27.9929 78.214 23.5258 72.6787 23.5258C67.1435 23.5258 62.6562 27.9929 62.6562 33.5034C62.6562 39.0139 67.1435 43.481 72.6787 43.481Z" fill="#BA86FC" stroke="#BA86FC" stroke-miterlimit="10"/>
<path id="Vector_60" d="M72.2354 42.6803C77.7706 42.6803 82.2579 38.2132 82.2579 32.7027C82.2579 27.1922 77.7706 22.7251 72.2354 22.7251C66.7001 22.7251 62.2129 27.1922 62.2129 32.7027C62.2129 38.2132 66.7001 42.6803 72.2354 42.6803Z" fill="#BA86FC" stroke="#BA86FC" stroke-miterlimit="10"/>
<path id="Vector_61" d="M71.7901 41.8795C77.3253 41.8795 81.8126 37.4124 81.8126 31.9019C81.8126 26.3914 77.3253 21.9243 71.7901 21.9243C66.2548 21.9243 61.7676 26.3914 61.7676 31.9019C61.7676 37.4124 66.2548 41.8795 71.7901 41.8795Z" fill="#BA86FC" stroke="#BA86FC" stroke-miterlimit="10"/>
<path id="Vector_62" d="M71.3467 41.081C76.882 41.081 81.3692 36.6139 81.3692 31.1034C81.3692 25.593 76.882 21.1259 71.3467 21.1259C65.8114 21.1259 61.3242 25.593 61.3242 31.1034C61.3242 36.6139 65.8114 41.081 71.3467 41.081Z" fill="#BA86FC" stroke="#BA86FC" stroke-miterlimit="10"/>
<path id="Vector_63" d="M70.9034 40.2803C76.4386 40.2803 80.9258 35.8131 80.9258 30.3027C80.9258 24.7922 76.4386 20.3251 70.9034 20.3251C65.3681 20.3251 60.8809 24.7922 60.8809 30.3027C60.8809 35.8131 65.3681 40.2803 70.9034 40.2803Z" fill="#BA86FC" stroke="#BA86FC" stroke-miterlimit="10"/>
<path id="Vector_64" d="M70.458 39.4795C75.9933 39.4795 80.4805 35.0124 80.4805 29.5019C80.4805 23.9914 75.9933 19.5243 70.458 19.5243C64.9228 19.5243 60.4355 23.9914 60.4355 29.5019C60.4355 35.0124 64.9228 39.4795 70.458 39.4795Z" fill="#BA86FC" stroke="#BA86FC" stroke-miterlimit="10"/>
<path id="Vector_65" d="M70.0147 38.6788C75.5499 38.6788 80.0372 34.2116 80.0372 28.7012C80.0372 23.1907 75.5499 18.7236 70.0147 18.7236C64.4794 18.7236 59.9922 23.1907 59.9922 28.7012C59.9922 34.2116 64.4794 38.6788 70.0147 38.6788Z" fill="#BA86FC" stroke="#BA86FC" stroke-miterlimit="10"/>
<path id="Vector_66" d="M69.5694 37.878C75.1046 37.878 79.5919 33.4109 79.5919 27.9004C79.5919 22.3899 75.1046 17.9228 69.5694 17.9228C64.0341 17.9228 59.5469 22.3899 59.5469 27.9004C59.5469 33.4109 64.0341 37.878 69.5694 37.878Z" fill="#BA86FC" stroke="#BA86FC" stroke-miterlimit="10"/>
<path id="Vector_67" d="M69.126 37.0773C74.6613 37.0773 79.1485 32.6101 79.1485 27.0997C79.1485 21.5892 74.6613 17.1221 69.126 17.1221C63.5907 17.1221 59.1035 21.5892 59.1035 27.0997C59.1035 32.6101 63.5907 37.0773 69.126 37.0773Z" fill="#BA86FC" stroke="#BA86FC" stroke-miterlimit="10"/>
<path id="Vector_68" d="M68.6807 36.2765C74.216 36.2765 78.7032 31.8094 78.7032 26.2989C78.7032 20.7884 74.216 16.3213 68.6807 16.3213C63.1454 16.3213 58.6582 20.7884 58.6582 26.2989C58.6582 31.8094 63.1454 36.2765 68.6807 36.2765Z" fill="#BA86FC" stroke="#BA86FC" stroke-miterlimit="10"/>
<path id="Vector_69" d="M68.2373 35.478C73.7726 35.478 78.2598 31.0109 78.2598 25.5004C78.2598 19.9899 73.7726 15.5228 68.2373 15.5228C62.7021 15.5228 58.2148 19.9899 58.2148 25.5004C58.2148 31.0109 62.7021 35.478 68.2373 35.478Z" fill="#BA86FC" stroke="#BA86FC" stroke-miterlimit="10"/>
<path id="Vector_70" d="M67.792 34.6772C73.3273 34.6772 77.8145 30.2101 77.8145 24.6996C77.8145 19.1892 73.3273 14.722 67.792 14.722C62.2568 14.722 57.7695 19.1892 57.7695 24.6996C57.7695 30.2101 62.2568 34.6772 67.792 34.6772Z" fill="#BA86FC" stroke="#BA86FC" stroke-miterlimit="10"/>
<path id="Vector_71" d="M67.3487 33.8765C72.8839 33.8765 77.3712 29.4094 77.3712 23.8989C77.3712 18.3884 72.8839 13.9213 67.3487 13.9213C61.8134 13.9213 57.3262 18.3884 57.3262 23.8989C57.3262 29.4094 61.8134 33.8765 67.3487 33.8765Z" fill="#BA86FC" stroke="#BA86FC" stroke-miterlimit="10"/>
<path id="Vector_72" d="M66.9053 33.0757C72.4406 33.0757 76.9278 28.6086 76.9278 23.0981C76.9278 17.5877 72.4406 13.1205 66.9053 13.1205C61.37 13.1205 56.8828 17.5877 56.8828 23.0981C56.8828 28.6086 61.37 33.0757 66.9053 33.0757Z" fill="#BA86FC" stroke="#BA86FC" stroke-miterlimit="10"/>
<path id="Vector_73" d="M66.46 32.275C71.9953 32.275 76.4825 27.8079 76.4825 22.2974C76.4825 16.7869 71.9953 12.3198 66.46 12.3198C60.9247 12.3198 56.4375 16.7869 56.4375 22.2974C56.4375 27.8079 60.9247 32.275 66.46 32.275Z" fill="#BA86FC" stroke="#BA86FC" stroke-miterlimit="10"/>
<path id="Vector_74" d="M66.0166 31.4742C71.5519 31.4742 76.0391 27.0071 76.0391 21.4966C76.0391 15.9862 71.5519 11.519 66.0166 11.519C60.4814 11.519 55.9941 15.9862 55.9941 21.4966C55.9941 27.0071 60.4814 31.4742 66.0166 31.4742Z" fill="#BA86FC" stroke="#BA86FC" stroke-miterlimit="10"/>
<path id="Vector_75" d="M65.5713 30.6735C71.1066 30.6735 75.5938 26.2063 75.5938 20.6959C75.5938 15.1854 71.1066 10.7183 65.5713 10.7183C60.0361 10.7183 55.5488 15.1854 55.5488 20.6959C55.5488 26.2063 60.0361 30.6735 65.5713 30.6735Z" fill="#BA86FC" stroke="#BA86FC" stroke-miterlimit="10"/>
<path id="Vector_76" d="M65.128 29.875C70.6632 29.875 75.1505 25.4079 75.1505 19.8974C75.1505 14.3869 70.6632 9.9198 65.128 9.9198C59.5927 9.9198 55.1055 14.3869 55.1055 19.8974C55.1055 25.4079 59.5927 29.875 65.128 29.875Z" fill="#BA86FC" stroke="#BA86FC" stroke-miterlimit="10"/>
<path id="Vector_77" d="M64.6807 29.0742C70.216 29.0742 74.7032 24.6071 74.7032 19.0966C74.7032 13.5861 70.216 9.11902 64.6807 9.11902C59.1454 9.11902 54.6582 13.5861 54.6582 19.0966C54.6582 24.6071 59.1454 29.0742 64.6807 29.0742Z" fill="#BA86FC" stroke="#BA86FC" stroke-miterlimit="10"/>
<path id="Vector_78" d="M64.2373 28.2735C69.7726 28.2735 74.2598 23.8064 74.2598 18.2959C74.2598 12.7854 69.7726 8.3183 64.2373 8.3183C58.7021 8.3183 54.2148 12.7854 54.2148 18.2959C54.2148 23.8064 58.7021 28.2735 64.2373 28.2735Z" fill="#BA86FC" stroke="#BA86FC" stroke-miterlimit="10"/>
<path id="Vector_79" d="M63.792 27.4727C69.3273 27.4727 73.8145 23.0056 73.8145 17.4951C73.8145 11.9846 69.3273 7.51752 63.792 7.51752C58.2568 7.51752 53.7695 11.9846 53.7695 17.4951C53.7695 23.0056 58.2568 27.4727 63.792 27.4727Z" fill="#BA86FC" stroke="#BA86FC" stroke-miterlimit="10"/>
<path id="Vector_80" d="M63.3487 26.672C68.8839 26.672 73.3712 22.2049 73.3712 16.6944C73.3712 11.1839 68.8839 6.7168 63.3487 6.7168C57.8134 6.7168 53.3262 11.1839 53.3262 16.6944C53.3262 22.2049 57.8134 26.672 63.3487 26.672Z" fill="#BA86FC" stroke="#BA86FC" stroke-miterlimit="10"/>
<path id="Vector_81" d="M62.9053 25.8712C68.4406 25.8712 72.9278 21.4041 72.9278 15.8936C72.9278 10.3831 68.4406 5.91602 62.9053 5.91602C57.37 5.91602 52.8828 10.3831 52.8828 15.8936C52.8828 21.4041 57.37 25.8712 62.9053 25.8712Z" fill="#BA86FC" stroke="#BA86FC" stroke-miterlimit="10"/>
<path id="Vector_82" d="M62.46 25.0705C67.9953 25.0705 72.4825 20.6034 72.4825 15.0929C72.4825 9.58242 67.9953 5.1153 62.46 5.1153C56.9247 5.1153 52.4375 9.58242 52.4375 15.0929C52.4375 20.6034 56.9247 25.0705 62.46 25.0705Z" fill="#BA86FC" stroke="#BA86FC" stroke-miterlimit="10"/>
<path id="Vector_83" d="M62.0166 24.272C67.5519 24.272 72.0391 19.8048 72.0391 14.2944C72.0391 8.78389 67.5519 4.31677 62.0166 4.31677C56.4814 4.31677 51.9941 8.78389 51.9941 14.2944C51.9941 19.8048 56.4814 24.272 62.0166 24.272Z" fill="#BA86FC" stroke="#BA86FC" stroke-miterlimit="10"/>
<path id="Vector_84" d="M61.5713 23.4712C67.1066 23.4712 71.5938 19.0041 71.5938 13.4936C71.5938 7.98317 67.1066 3.51605 61.5713 3.51605C56.0361 3.51605 51.5488 7.98317 51.5488 13.4936C51.5488 19.0041 56.0361 23.4712 61.5713 23.4712Z" fill="#BA86FC" stroke="#BA86FC" stroke-miterlimit="10"/>
<path id="Vector_85" d="M61.128 22.6705C66.6632 22.6705 71.1505 18.2033 71.1505 12.6929C71.1505 7.18239 66.6632 2.71527 61.128 2.71527C55.5927 2.71527 51.1055 7.18239 51.1055 12.6929C51.1055 18.2033 55.5927 22.6705 61.128 22.6705Z" fill="#BA86FC" stroke="#BA86FC" stroke-miterlimit="10"/>
<path id="Vector_86" d="M60.6826 21.8697C66.2179 21.8697 70.7051 17.4026 70.7051 11.8921C70.7051 6.38167 66.2179 1.91455 60.6826 1.91455C55.1474 1.91455 50.6602 6.38167 50.6602 11.8921C50.6602 17.4026 55.1474 21.8697 60.6826 21.8697Z" fill="#BA86FC" stroke="#BA86FC" stroke-miterlimit="10"/>
<path id="Vector_87" d="M60.2393 21.069C65.7746 21.069 70.2618 16.6018 70.2618 11.0914C70.2618 5.58089 65.7746 1.11377 60.2393 1.11377C54.704 1.11377 50.2168 5.58089 50.2168 11.0914C50.2168 16.6018 54.704 21.069 60.2393 21.069Z" fill="#BA86FC" stroke="#BA86FC" stroke-miterlimit="10"/>
</g>
</g>
</svg>
