<svg width="190" height="50" viewBox="0 0 190 50" fill="none" xmlns="http://www.w3.org/2000/svg">
<g id="Group">
<path id="Vector" d="M0.594335 37.4648L6.31029 3.87225H14.9618L21.792 21.8018L29.0266 3.87225H37.7798L42.8395 37.4648H34.0862L31.606 18.1247L23.4607 37.4648H19.9706L12.1789 18.1247L9.29419 37.4648H0.591797H0.594335Z" fill="#BA86FC"/>
<path id="Vector_2" d="M63.6842 14.9516H71.7786V37.4648H63.6842V34.9957C61.812 37.5636 58.8789 38.2195 56.6531 38.2195C54.2238 38.2195 51.2399 37.5155 48.5078 34.6437C46.3328 32.3265 45.2695 29.7587 45.2695 26.3829C45.2695 22.1513 46.9383 19.1807 48.7596 17.3675C50.6828 15.453 53.6667 14.1944 56.9049 14.1944C60.5477 14.1944 62.7226 16.0583 63.6842 17.1168V14.9516ZM55.1828 22.5058C54.0686 23.5644 53.5649 25.023 53.5649 26.1829C53.5649 27.4921 54.122 28.9027 55.1344 29.86C55.9943 30.6653 57.4112 31.3718 58.7772 31.3718C60.1432 31.3718 61.4075 30.8172 62.4199 29.8093C63.1271 29.1053 63.9386 27.9961 63.9386 26.1829C63.9386 25.1243 63.6359 23.7138 62.3691 22.5058C61.611 21.8018 60.4459 21.0446 58.7263 21.0446C57.7139 21.0446 56.3478 21.3966 55.1853 22.5058H55.1828Z" fill="#BA86FC" stroke="#BA86FC" stroke-miterlimit="10"/>
<path id="Vector_3" d="M79.9226 1.05115C82.4511 1.05115 84.476 3.06695 84.476 5.58418C84.476 8.10141 82.4511 10.1172 79.9226 10.1172C77.394 10.1172 75.3691 8.10141 75.3691 5.58418C75.3691 3.06695 77.394 1.05115 79.9226 1.05115ZM83.9698 14.9516V48.9975H75.8754V14.9516H83.9698Z" fill="#BA86FC" stroke="#BA86FC" stroke-miterlimit="10"/>
<path id="Vector_4" d="M87.2604 37.4648L92.9763 3.87225H101.628L108.458 21.8018L115.693 3.87225H124.446L129.506 37.4648H120.752L118.272 18.1247L110.127 37.4648H106.637L98.8449 18.1247L95.9602 37.4648H87.2578H87.2604Z" fill="#BA86FC"/>
<path id="Vector_5" d="M150.348 14.9516H158.443V37.4648H150.348V34.9957C148.476 37.5636 145.543 38.2195 143.317 38.2195C140.888 38.2195 137.904 37.5155 135.172 34.6437C132.997 32.3265 131.934 29.7587 131.934 26.3829C131.934 22.1513 133.602 19.1807 135.424 17.3675C137.347 15.453 140.331 14.1944 143.569 14.1944C147.212 14.1944 149.387 16.0583 150.348 17.1168V14.9516ZM141.849 22.5058C140.735 23.5644 140.232 25.023 140.232 26.1829C140.232 27.4921 140.789 28.9027 141.801 29.86C142.661 30.6653 144.078 31.3718 145.444 31.3718C146.81 31.3718 148.074 30.8172 149.087 29.8093C149.794 29.1053 150.605 27.9961 150.605 26.1829C150.605 25.1243 150.302 23.7138 149.036 22.5058C148.278 21.8018 147.113 21.0446 145.393 21.0446C144.38 21.0446 143.014 21.3966 141.852 22.5058H141.849Z" fill="#BA86FC" stroke="#BA86FC" stroke-miterlimit="10"/>
<path id="Vector_6" d="M170.635 48.9975H162.541V14.9516H170.635V17.4207C172.052 15.6582 174.227 14.197 177.567 14.197C180.907 14.197 183.79 15.6582 185.611 17.4714C187.483 19.3352 189.05 22.3058 189.05 26.1854C189.05 30.0651 187.582 32.985 185.407 35.0996C182.879 37.5687 179.943 38.222 177.667 38.222C176.199 38.222 173.164 37.9207 170.635 35.2996V49V48.9975ZM171.951 22.5565C170.938 23.5644 170.381 25.0256 170.381 26.2842C170.381 27.5428 171.088 29.004 171.951 29.86C172.912 30.8172 174.227 31.3718 175.593 31.3718C176.959 31.3718 178.275 30.8172 179.185 29.86C180.045 29.004 180.755 27.6441 180.755 26.2842C180.755 25.0256 180.198 23.5644 179.185 22.5565C178.275 21.5992 177.01 21.0446 175.593 21.0446C174.176 21.0446 172.912 21.5992 171.951 22.5565Z" fill="#BA86FC"/>
</g>
</svg>
