<svg width="225" height="134" viewBox="0 0 225 134" fill="none" xmlns="http://www.w3.org/2000/svg">
<path d="M41.9074 72.6415V93.1793C39.4025 90.3128 35.6884 88.4985 31.5463 88.4985C27.4041 88.4985 23.3835 90.4607 20.8843 93.532V72.7439C24.2107 71.5665 27.8033 70.9238 31.5463 70.9238C35.2892 70.9238 38.6677 71.5267 41.9074 72.6415Z" fill="#FCF6BD"/>
<path d="M63.0808 101.934C63.0808 102.958 63.0287 103.97 62.9304 104.971C61.7155 117.194 53.2924 127.34 41.8957 131.225C38.656 132.34 35.1618 132.943 31.5345 132.943C27.9073 132.943 24.199 132.305 20.8726 131.122V110.34C23.3775 113.411 27.2246 115.374 31.5345 115.374C35.8445 115.374 39.3907 113.559 41.8957 110.698C43.961 108.344 45.199 105.284 45.199 101.939C45.199 98.5952 43.961 95.5353 41.8957 93.1806V72.6484C53.2924 76.5387 61.7155 86.6797 62.9304 98.9023C63.0287 99.8976 63.0808 100.91 63.0808 101.939V101.934Z" fill="#BA86FC"/>
<path d="M20.8785 72.7441V93.5323C18.9983 95.8357 17.876 98.7591 17.876 101.933C17.876 105.106 18.9983 108.036 20.8785 110.333V131.121C8.70661 126.827 0 115.378 0 101.933C0 88.4874 8.70661 77.0383 20.8785 72.7441Z" fill="#A9DEF9"/>
<path d="M115.899 132.94C129.912 132.94 141.272 121.772 141.272 107.995C141.272 94.2174 129.912 83.0488 115.899 83.0488C101.886 83.0488 90.5254 94.2174 90.5254 107.995C90.5254 121.772 101.886 132.94 115.899 132.94Z" fill="#BA86FC" stroke="#BA86FC" stroke-miterlimit="10"/>
<path d="M114.759 130.938C128.773 130.938 140.133 119.77 140.133 105.993C140.133 92.2155 128.773 81.0469 114.759 81.0469C100.746 81.0469 89.3857 92.2155 89.3857 105.993C89.3857 119.77 100.746 130.938 114.759 130.938Z" fill="#BA86FC" stroke="#BA86FC" stroke-miterlimit="10"/>
<path d="M113.62 128.942C127.633 128.942 138.993 117.774 138.993 103.997C138.993 90.2194 127.633 79.0508 113.62 79.0508C99.6062 79.0508 88.2461 90.2194 88.2461 103.997C88.2461 117.774 99.6062 128.942 113.62 128.942Z" fill="#BA86FC" stroke="#BA86FC" stroke-miterlimit="10"/>
<path d="M112.486 126.94C126.499 126.94 137.859 115.772 137.859 101.995C137.859 88.2174 126.499 77.0488 112.486 77.0488C98.4724 77.0488 87.1123 88.2174 87.1123 101.995C87.1123 115.772 98.4724 126.94 112.486 126.94Z" fill="#BA86FC" stroke="#BA86FC" stroke-miterlimit="10"/>
<path d="M111.346 124.938C125.36 124.938 136.72 113.77 136.72 99.9926C136.72 86.2155 125.36 75.0469 111.346 75.0469C97.3328 75.0469 85.9727 86.2155 85.9727 99.9926C85.9727 113.77 97.3328 124.938 111.346 124.938Z" fill="#BA86FC" stroke="#BA86FC" stroke-miterlimit="10"/>
<path d="M110.207 122.936C124.22 122.936 135.58 111.768 135.58 97.9907C135.58 84.2135 124.22 73.0449 110.207 73.0449C96.1931 73.0449 84.833 84.2135 84.833 97.9907C84.833 111.768 96.1931 122.936 110.207 122.936Z" fill="#BA86FC" stroke="#BA86FC" stroke-miterlimit="10"/>
<path d="M109.067 120.934C123.08 120.934 134.44 109.766 134.44 95.9887C134.44 82.2116 123.08 71.043 109.067 71.043C95.0535 71.043 83.6934 82.2116 83.6934 95.9887C83.6934 109.766 95.0535 120.934 109.067 120.934Z" fill="#BA86FC" stroke="#BA86FC" stroke-miterlimit="10"/>
<path d="M107.927 118.933C121.941 118.933 133.301 107.764 133.301 93.9868C133.301 80.2096 121.941 69.041 107.927 69.041C93.9138 69.041 82.5537 80.2096 82.5537 93.9868C82.5537 107.764 93.9138 118.933 107.927 118.933Z" fill="#BA86FC" stroke="#BA86FC" stroke-miterlimit="10"/>
<path d="M106.788 116.931C120.801 116.931 132.161 105.762 132.161 91.9848C132.161 78.2077 120.801 67.0391 106.788 67.0391C92.7742 67.0391 81.4141 78.2077 81.4141 91.9848C81.4141 105.762 92.7742 116.931 106.788 116.931Z" fill="#BA86FC" stroke="#BA86FC" stroke-miterlimit="10"/>
<path d="M105.648 114.934C119.661 114.934 131.022 103.766 131.022 89.9887C131.022 76.2116 119.661 65.043 105.648 65.043C91.6345 65.043 80.2744 76.2116 80.2744 89.9887C80.2744 103.766 91.6345 114.934 105.648 114.934Z" fill="#BA86FC" stroke="#BA86FC" stroke-miterlimit="10"/>
<path d="M104.508 112.932C118.522 112.932 129.882 101.764 129.882 87.9868C129.882 74.2096 118.522 63.041 104.508 63.041C90.4949 63.041 79.1348 74.2096 79.1348 87.9868C79.1348 101.764 90.4949 112.932 104.508 112.932Z" fill="#BA86FC" stroke="#BA86FC" stroke-miterlimit="10"/>
<path d="M103.369 110.931C117.382 110.931 128.742 99.762 128.742 85.9848C128.742 72.2077 117.382 61.0391 103.369 61.0391C89.3552 61.0391 77.9951 72.2077 77.9951 85.9848C77.9951 99.762 89.3552 110.931 103.369 110.931Z" fill="#BA86FC" stroke="#BA86FC" stroke-miterlimit="10"/>
<path d="M102.235 108.929C116.248 108.929 127.608 97.76 127.608 83.9828C127.608 70.2057 116.248 59.0371 102.235 59.0371C88.2215 59.0371 76.8613 70.2057 76.8613 83.9828C76.8613 97.76 88.2215 108.929 102.235 108.929Z" fill="#BA86FC" stroke="#BA86FC" stroke-miterlimit="10"/>
<path d="M101.095 106.927C115.109 106.927 126.469 95.7581 126.469 81.9809C126.469 68.2037 115.109 57.0352 101.095 57.0352C87.0818 57.0352 75.7217 68.2037 75.7217 81.9809C75.7217 95.7581 87.0818 106.927 101.095 106.927Z" fill="#BA86FC" stroke="#BA86FC" stroke-miterlimit="10"/>
<path d="M99.9556 104.923C113.969 104.923 125.329 93.7541 125.329 79.977C125.329 66.1998 113.969 55.0312 99.9556 55.0312C85.9422 55.0312 74.582 66.1998 74.582 79.977C74.582 93.7541 85.9422 104.923 99.9556 104.923Z" fill="#BA86FC" stroke="#BA86FC" stroke-miterlimit="10"/>
<path d="M98.8159 102.921C112.829 102.921 124.189 91.7522 124.189 77.975C124.189 64.1979 112.829 53.0293 98.8159 53.0293C84.8025 53.0293 73.4424 64.1979 73.4424 77.975C73.4424 91.7522 84.8025 102.921 98.8159 102.921Z" fill="#BA86FC" stroke="#BA86FC" stroke-miterlimit="10"/>
<path d="M97.6763 100.925C111.69 100.925 123.05 89.7561 123.05 75.9789C123.05 62.2018 111.69 51.0332 97.6763 51.0332C83.6629 51.0332 72.3027 62.2018 72.3027 75.9789C72.3027 89.7561 83.6629 100.925 97.6763 100.925Z" fill="#BA86FC" stroke="#BA86FC" stroke-miterlimit="10"/>
<path d="M96.5366 98.9227C110.55 98.9227 121.91 87.7541 121.91 73.977C121.91 60.1998 110.55 49.0312 96.5366 49.0312C82.5232 49.0312 71.1631 60.1998 71.1631 73.977C71.1631 87.7541 82.5232 98.9227 96.5366 98.9227Z" fill="#BA86FC" stroke="#BA86FC" stroke-miterlimit="10"/>
<path d="M95.3965 96.9208C109.41 96.9208 120.77 85.7522 120.77 71.975C120.77 58.1979 109.41 47.0293 95.3965 47.0293C81.3831 47.0293 70.0229 58.1979 70.0229 71.975C70.0229 85.7522 81.3831 96.9208 95.3965 96.9208Z" fill="#BA86FC" stroke="#BA86FC" stroke-miterlimit="10"/>
<path d="M94.2568 94.9188C108.27 94.9188 119.63 83.7502 119.63 69.9731C119.63 56.1959 108.27 45.0273 94.2568 45.0273C80.2434 45.0273 68.8833 56.1959 68.8833 69.9731C68.8833 83.7502 80.2434 94.9188 94.2568 94.9188Z" fill="#BA86FC" stroke="#BA86FC" stroke-miterlimit="10"/>
<path d="M93.1172 92.9169C107.131 92.9169 118.491 81.7483 118.491 67.9711C118.491 54.194 107.131 43.0254 93.1172 43.0254C79.1038 43.0254 67.7437 54.194 67.7437 67.9711C67.7437 81.7483 79.1038 92.9169 93.1172 92.9169Z" fill="#BA86FC" stroke="#BA86FC" stroke-miterlimit="10"/>
<path d="M91.9834 90.9149C105.997 90.9149 117.357 79.7463 117.357 65.9692C117.357 52.192 105.997 41.0234 91.9834 41.0234C77.97 41.0234 66.6099 52.192 66.6099 65.9692C66.6099 79.7463 77.97 90.9149 91.9834 90.9149Z" fill="#BA86FC" stroke="#BA86FC" stroke-miterlimit="10"/>
<path d="M90.8438 88.913C104.857 88.913 116.217 77.7444 116.217 63.9672C116.217 50.1901 104.857 39.0215 90.8438 39.0215C76.8303 39.0215 65.4702 50.1901 65.4702 63.9672C65.4702 77.7444 76.8303 88.913 90.8438 88.913Z" fill="#BA86FC" stroke="#BA86FC" stroke-miterlimit="10"/>
<path d="M89.7041 86.9169C103.718 86.9169 115.078 75.7483 115.078 61.9711C115.078 48.194 103.718 37.0254 89.7041 37.0254C75.6907 37.0254 64.3306 48.194 64.3306 61.9711C64.3306 75.7483 75.6907 86.9169 89.7041 86.9169Z" fill="#BA86FC" stroke="#BA86FC" stroke-miterlimit="10"/>
<path d="M88.5645 84.9149C102.578 84.9149 113.938 73.7463 113.938 59.9692C113.938 46.192 102.578 35.0234 88.5645 35.0234C74.551 35.0234 63.1909 46.192 63.1909 59.9692C63.1909 73.7463 74.551 84.9149 88.5645 84.9149Z" fill="#BA86FC" stroke="#BA86FC" stroke-miterlimit="10"/>
<path d="M87.4248 82.913C101.438 82.913 112.798 71.7444 112.798 57.9672C112.798 44.1901 101.438 33.0215 87.4248 33.0215C73.4114 33.0215 62.0513 44.1901 62.0513 57.9672C62.0513 71.7444 73.4114 82.913 87.4248 82.913Z" fill="#BA86FC" stroke="#BA86FC" stroke-miterlimit="10"/>
<path d="M86.2852 80.911C100.299 80.911 111.659 69.7424 111.659 55.9653C111.659 42.1881 100.299 31.0195 86.2852 31.0195C72.2717 31.0195 60.9116 42.1881 60.9116 55.9653C60.9116 69.7424 72.2717 80.911 86.2852 80.911Z" fill="#BA86FC" stroke="#BA86FC" stroke-miterlimit="10"/>
<path d="M85.1455 78.9091C99.1589 78.9091 110.519 67.7405 110.519 53.9633C110.519 40.1862 99.1589 29.0176 85.1455 29.0176C71.1321 29.0176 59.772 40.1862 59.772 53.9633C59.772 67.7405 71.1321 78.9091 85.1455 78.9091Z" fill="#BA86FC" stroke="#BA86FC" stroke-miterlimit="10"/>
<path d="M84.0059 76.9071C98.0193 76.9071 109.379 65.7385 109.379 51.9614C109.379 38.1842 98.0193 27.0156 84.0059 27.0156C69.9925 27.0156 58.6323 38.1842 58.6323 51.9614C58.6323 65.7385 69.9925 76.9071 84.0059 76.9071Z" fill="#BA86FC" stroke="#BA86FC" stroke-miterlimit="10"/>
<path d="M82.8721 74.9052C96.8855 74.9052 108.246 63.7366 108.246 49.9594C108.246 36.1823 96.8855 25.0137 82.8721 25.0137C68.8587 25.0137 57.4985 36.1823 57.4985 49.9594C57.4985 63.7366 68.8587 74.9052 82.8721 74.9052Z" fill="#BA86FC" stroke="#BA86FC" stroke-miterlimit="10"/>
<path d="M81.7324 72.9091C95.7459 72.9091 107.106 61.7405 107.106 47.9633C107.106 34.1862 95.7459 23.0176 81.7324 23.0176C67.719 23.0176 56.3589 34.1862 56.3589 47.9633C56.3589 61.7405 67.719 72.9091 81.7324 72.9091Z" fill="#BA86FC" stroke="#BA86FC" stroke-miterlimit="10"/>
<path d="M80.5928 70.9071C94.6062 70.9071 105.966 59.7385 105.966 45.9614C105.966 32.1842 94.6062 21.0156 80.5928 21.0156C66.5794 21.0156 55.2192 32.1842 55.2192 45.9614C55.2192 59.7385 66.5794 70.9071 80.5928 70.9071Z" fill="#BA86FC" stroke="#BA86FC" stroke-miterlimit="10"/>
<path d="M79.4531 68.9052C93.4666 68.9052 104.827 57.7366 104.827 43.9594C104.827 30.1823 93.4666 19.0137 79.4531 19.0137C65.4397 19.0137 54.0796 30.1823 54.0796 43.9594C54.0796 57.7366 65.4397 68.9052 79.4531 68.9052Z" fill="#BA86FC" stroke="#BA86FC" stroke-miterlimit="10"/>
<path d="M78.313 66.9012C92.3264 66.9012 103.687 55.7327 103.687 41.9555C103.687 28.1784 92.3264 17.0098 78.313 17.0098C64.2996 17.0098 52.9395 28.1784 52.9395 41.9555C52.9395 55.7327 64.2996 66.9012 78.313 66.9012Z" fill="#BA86FC" stroke="#BA86FC" stroke-miterlimit="10"/>
<path d="M77.1733 64.8993C91.1868 64.8993 102.547 53.7307 102.547 39.9536C102.547 26.1764 91.1868 15.0078 77.1733 15.0078C63.1599 15.0078 51.7998 26.1764 51.7998 39.9536C51.7998 53.7307 63.1599 64.8993 77.1733 64.8993Z" fill="#BA86FC" stroke="#BA86FC" stroke-miterlimit="10"/>
<path d="M76.0337 62.8973C90.0471 62.8973 101.407 51.7288 101.407 37.9516C101.407 24.1744 90.0471 13.0059 76.0337 13.0059C62.0203 13.0059 50.6602 24.1744 50.6602 37.9516C50.6602 51.7288 62.0203 62.8973 76.0337 62.8973Z" fill="#BA86FC" stroke="#BA86FC" stroke-miterlimit="10"/>
<path d="M74.8941 60.8954C88.9075 60.8954 100.268 49.7268 100.268 35.9496C100.268 22.1725 88.9075 11.0039 74.8941 11.0039C60.8806 11.0039 49.5205 22.1725 49.5205 35.9496C49.5205 49.7268 60.8806 60.8954 74.8941 60.8954Z" fill="#BA86FC" stroke="#BA86FC" stroke-miterlimit="10"/>
<path d="M73.7544 58.8993C87.7678 58.8993 99.128 47.7307 99.128 33.9536C99.128 20.1764 87.7678 9.00781 73.7544 9.00781C59.741 9.00781 48.3809 20.1764 48.3809 33.9536C48.3809 47.7307 59.741 58.8993 73.7544 58.8993Z" fill="#BA86FC" stroke="#BA86FC" stroke-miterlimit="10"/>
<path d="M72.6206 56.8973C86.634 56.8973 97.9942 45.7287 97.9942 31.9516C97.9942 18.1744 86.634 7.00586 72.6206 7.00586C58.6072 7.00586 47.2471 18.1744 47.2471 31.9516C47.2471 45.7287 58.6072 56.8973 72.6206 56.8973Z" fill="#BA86FC" stroke="#BA86FC" stroke-miterlimit="10"/>
<path d="M71.481 54.8954C85.4944 54.8954 96.8545 43.7268 96.8545 29.9496C96.8545 16.1725 85.4944 5.00391 71.481 5.00391C57.4675 5.00391 46.1074 16.1725 46.1074 29.9496C46.1074 43.7268 57.4675 54.8954 71.481 54.8954Z" fill="#BA86FC" stroke="#BA86FC" stroke-miterlimit="10"/>
<path d="M70.3413 52.8934C84.3547 52.8934 95.7149 41.7248 95.7149 27.9477C95.7149 14.1705 84.3547 3.00195 70.3413 3.00195C56.3279 3.00195 44.9678 14.1705 44.9678 27.9477C44.9678 41.7248 56.3279 52.8934 70.3413 52.8934Z" fill="#BA86FC" stroke="#BA86FC" stroke-miterlimit="10"/>
<path d="M69.2017 50.8915C83.2151 50.8915 94.5752 39.7229 94.5752 25.9457C94.5752 12.1686 83.2151 1 69.2017 1C55.1882 1 43.8281 12.1686 43.8281 25.9457C43.8281 39.7229 55.1882 50.8915 69.2017 50.8915Z" fill="#BA86FC" stroke="#BA86FC" stroke-miterlimit="10"/>
<path d="M198.626 132.94C212.64 132.94 224 121.772 224 107.995C224 94.2174 212.64 83.0488 198.626 83.0488C184.613 83.0488 173.253 94.2174 173.253 107.995C173.253 121.772 184.613 132.94 198.626 132.94Z" fill="#BA86FC" stroke="#BA86FC" stroke-miterlimit="10"/>
<path d="M197.504 130.938C211.517 130.938 222.877 119.77 222.877 105.993C222.877 92.2155 211.517 81.0469 197.504 81.0469C183.49 81.0469 172.13 92.2155 172.13 105.993C172.13 119.77 183.49 130.938 197.504 130.938Z" fill="#BA86FC" stroke="#BA86FC" stroke-miterlimit="10"/>
<path d="M196.376 128.942C210.389 128.942 221.75 117.774 221.75 103.997C221.75 90.2194 210.389 79.0508 196.376 79.0508C182.363 79.0508 171.002 90.2194 171.002 103.997C171.002 117.774 182.363 128.942 196.376 128.942Z" fill="#BA86FC" stroke="#BA86FC" stroke-miterlimit="10"/>
<path d="M195.253 126.94C209.267 126.94 220.627 115.772 220.627 101.995C220.627 88.2174 209.267 77.0488 195.253 77.0488C181.24 77.0488 169.88 88.2174 169.88 101.995C169.88 115.772 181.24 126.94 195.253 126.94Z" fill="#BA86FC" stroke="#BA86FC" stroke-miterlimit="10"/>
<path d="M194.125 124.938C208.139 124.938 219.499 113.77 219.499 99.9926C219.499 86.2155 208.139 75.0469 194.125 75.0469C180.112 75.0469 168.752 86.2155 168.752 99.9926C168.752 113.77 180.112 124.938 194.125 124.938Z" fill="#BA86FC" stroke="#BA86FC" stroke-miterlimit="10"/>
<path d="M193.003 122.936C207.017 122.936 218.377 111.768 218.377 97.9907C218.377 84.2135 207.017 73.0449 193.003 73.0449C178.99 73.0449 167.63 84.2135 167.63 97.9907C167.63 111.768 178.99 122.936 193.003 122.936Z" fill="#BA86FC" stroke="#BA86FC" stroke-miterlimit="10"/>
<path d="M191.881 120.934C205.894 120.934 217.254 109.766 217.254 95.9887C217.254 82.2116 205.894 71.043 191.881 71.043C177.867 71.043 166.507 82.2116 166.507 95.9887C166.507 109.766 177.867 120.934 191.881 120.934Z" fill="#BA86FC" stroke="#BA86FC" stroke-miterlimit="10"/>
<path d="M190.753 118.933C204.766 118.933 216.126 107.764 216.126 93.9868C216.126 80.2096 204.766 69.041 190.753 69.041C176.74 69.041 165.379 80.2096 165.379 93.9868C165.379 107.764 176.74 118.933 190.753 118.933Z" fill="#BA86FC" stroke="#BA86FC" stroke-miterlimit="10"/>
<path d="M189.63 116.931C203.644 116.931 215.004 105.762 215.004 91.9848C215.004 78.2077 203.644 67.0391 189.63 67.0391C175.617 67.0391 164.257 78.2077 164.257 91.9848C164.257 105.762 175.617 116.931 189.63 116.931Z" fill="#BA86FC" stroke="#BA86FC" stroke-miterlimit="10"/>
<path d="M188.502 114.934C202.516 114.934 213.876 103.766 213.876 89.9887C213.876 76.2116 202.516 65.043 188.502 65.043C174.489 65.043 163.129 76.2116 163.129 89.9887C163.129 103.766 174.489 114.934 188.502 114.934Z" fill="#BA86FC" stroke="#BA86FC" stroke-miterlimit="10"/>
<path d="M187.38 112.932C201.393 112.932 212.753 101.764 212.753 87.9868C212.753 74.2096 201.393 63.041 187.38 63.041C173.366 63.041 162.006 74.2096 162.006 87.9868C162.006 101.764 173.366 112.932 187.38 112.932Z" fill="#BA86FC" stroke="#BA86FC" stroke-miterlimit="10"/>
<path d="M186.252 110.931C200.265 110.931 211.626 99.762 211.626 85.9848C211.626 72.2077 200.265 61.0391 186.252 61.0391C172.239 61.0391 160.878 72.2077 160.878 85.9848C160.878 99.762 172.239 110.931 186.252 110.931Z" fill="#BA86FC" stroke="#BA86FC" stroke-miterlimit="10"/>
<path d="M185.129 108.929C199.143 108.929 210.503 97.76 210.503 83.9828C210.503 70.2057 199.143 59.0371 185.129 59.0371C171.116 59.0371 159.756 70.2057 159.756 83.9828C159.756 97.76 171.116 108.929 185.129 108.929Z" fill="#BA86FC" stroke="#BA86FC" stroke-miterlimit="10"/>
<path d="M184.001 106.927C198.015 106.927 209.375 95.7581 209.375 81.9809C209.375 68.2037 198.015 57.0352 184.001 57.0352C169.988 57.0352 158.628 68.2037 158.628 81.9809C158.628 95.7581 169.988 106.927 184.001 106.927Z" fill="#BA86FC" stroke="#BA86FC" stroke-miterlimit="10"/>
<path d="M182.879 104.923C196.893 104.923 208.253 93.7541 208.253 79.977C208.253 66.1998 196.893 55.0312 182.879 55.0312C168.866 55.0312 157.506 66.1998 157.506 79.977C157.506 93.7541 168.866 104.923 182.879 104.923Z" fill="#BA86FC" stroke="#BA86FC" stroke-miterlimit="10"/>
<path d="M181.751 102.921C195.764 102.921 207.125 91.7522 207.125 77.975C207.125 64.1979 195.764 53.0293 181.751 53.0293C167.738 53.0293 156.377 64.1979 156.377 77.975C156.377 91.7522 167.738 102.921 181.751 102.921Z" fill="#BA86FC" stroke="#BA86FC" stroke-miterlimit="10"/>
<path d="M180.629 100.925C194.642 100.925 206.002 89.7561 206.002 75.9789C206.002 62.2018 194.642 51.0332 180.629 51.0332C166.616 51.0332 155.255 62.2018 155.255 75.9789C155.255 89.7561 166.616 100.925 180.629 100.925Z" fill="#BA86FC" stroke="#BA86FC" stroke-miterlimit="10"/>
<path d="M179.506 98.9227C193.52 98.9227 204.88 87.7541 204.88 73.977C204.88 60.1998 193.52 49.0312 179.506 49.0312C165.493 49.0312 154.133 60.1998 154.133 73.977C154.133 87.7541 165.493 98.9227 179.506 98.9227Z" fill="#BA86FC" stroke="#BA86FC" stroke-miterlimit="10"/>
<path d="M178.378 96.9208C192.392 96.9208 203.752 85.7522 203.752 71.975C203.752 58.1979 192.392 47.0293 178.378 47.0293C164.365 47.0293 153.005 58.1979 153.005 71.975C153.005 85.7522 164.365 96.9208 178.378 96.9208Z" fill="#BA86FC" stroke="#BA86FC" stroke-miterlimit="10"/>
<path d="M177.256 94.9188C191.269 94.9188 202.629 83.7502 202.629 69.9731C202.629 56.1959 191.269 45.0273 177.256 45.0273C163.242 45.0273 151.882 56.1959 151.882 69.9731C151.882 83.7502 163.242 94.9188 177.256 94.9188Z" fill="#BA86FC" stroke="#BA86FC" stroke-miterlimit="10"/>
<path d="M176.128 92.9169C190.141 92.9169 201.501 81.7483 201.501 67.9711C201.501 54.194 190.141 43.0254 176.128 43.0254C162.115 43.0254 150.754 54.194 150.754 67.9711C150.754 81.7483 162.115 92.9169 176.128 92.9169Z" fill="#BA86FC" stroke="#BA86FC" stroke-miterlimit="10"/>
<path d="M175.006 90.9149C189.019 90.9149 200.379 79.7463 200.379 65.9692C200.379 52.192 189.019 41.0234 175.006 41.0234C160.992 41.0234 149.632 52.192 149.632 65.9692C149.632 79.7463 160.992 90.9149 175.006 90.9149Z" fill="#BA86FC" stroke="#BA86FC" stroke-miterlimit="10"/>
<path d="M173.877 88.913C187.891 88.913 199.251 77.7444 199.251 63.9672C199.251 50.1901 187.891 39.0215 173.877 39.0215C159.864 39.0215 148.504 50.1901 148.504 63.9672C148.504 77.7444 159.864 88.913 173.877 88.913Z" fill="#BA86FC" stroke="#BA86FC" stroke-miterlimit="10"/>
<path d="M172.755 86.9169C186.769 86.9169 198.129 75.7483 198.129 61.9711C198.129 48.194 186.769 37.0254 172.755 37.0254C158.742 37.0254 147.382 48.194 147.382 61.9711C147.382 75.7483 158.742 86.9169 172.755 86.9169Z" fill="#BA86FC" stroke="#BA86FC" stroke-miterlimit="10"/>
<path d="M171.627 84.9149C185.64 84.9149 197.001 73.7463 197.001 59.9692C197.001 46.192 185.64 35.0234 171.627 35.0234C157.614 35.0234 146.253 46.192 146.253 59.9692C146.253 73.7463 157.614 84.9149 171.627 84.9149Z" fill="#BA86FC" stroke="#BA86FC" stroke-miterlimit="10"/>
<path d="M170.505 82.913C184.518 82.913 195.878 71.7444 195.878 57.9672C195.878 44.1901 184.518 33.0215 170.505 33.0215C156.491 33.0215 145.131 44.1901 145.131 57.9672C145.131 71.7444 156.491 82.913 170.505 82.913Z" fill="#BA86FC" stroke="#BA86FC" stroke-miterlimit="10"/>
<path d="M169.382 80.911C183.396 80.911 194.756 69.7424 194.756 55.9653C194.756 42.1881 183.396 31.0195 169.382 31.0195C155.369 31.0195 144.009 42.1881 144.009 55.9653C144.009 69.7424 155.369 80.911 169.382 80.911Z" fill="#BA86FC" stroke="#BA86FC" stroke-miterlimit="10"/>
<path d="M168.254 78.9091C182.268 78.9091 193.628 67.7405 193.628 53.9633C193.628 40.1862 182.268 29.0176 168.254 29.0176C154.241 29.0176 142.881 40.1862 142.881 53.9633C142.881 67.7405 154.241 78.9091 168.254 78.9091Z" fill="#BA86FC" stroke="#BA86FC" stroke-miterlimit="10"/>
<path d="M167.132 76.9071C181.146 76.9071 192.506 65.7385 192.506 51.9614C192.506 38.1842 181.146 27.0156 167.132 27.0156C153.119 27.0156 141.759 38.1842 141.759 51.9614C141.759 65.7385 153.119 76.9071 167.132 76.9071Z" fill="#BA86FC" stroke="#BA86FC" stroke-miterlimit="10"/>
<path d="M166.004 74.9052C180.017 74.9052 191.377 63.7366 191.377 49.9594C191.377 36.1823 180.017 25.0137 166.004 25.0137C151.991 25.0137 140.63 36.1823 140.63 49.9594C140.63 63.7366 151.991 74.9052 166.004 74.9052Z" fill="#BA86FC" stroke="#BA86FC" stroke-miterlimit="10"/>
<path d="M164.882 72.9091C178.895 72.9091 190.255 61.7405 190.255 47.9633C190.255 34.1862 178.895 23.0176 164.882 23.0176C150.868 23.0176 139.508 34.1862 139.508 47.9633C139.508 61.7405 150.868 72.9091 164.882 72.9091Z" fill="#BA86FC" stroke="#BA86FC" stroke-miterlimit="10"/>
<path d="M163.753 70.9071C177.767 70.9071 189.127 59.7385 189.127 45.9614C189.127 32.1842 177.767 21.0156 163.753 21.0156C149.74 21.0156 138.38 32.1842 138.38 45.9614C138.38 59.7385 149.74 70.9071 163.753 70.9071Z" fill="#BA86FC" stroke="#BA86FC" stroke-miterlimit="10"/>
<path d="M162.631 68.9052C176.645 68.9052 188.005 57.7366 188.005 43.9594C188.005 30.1823 176.645 19.0137 162.631 19.0137C148.618 19.0137 137.258 30.1823 137.258 43.9594C137.258 57.7366 148.618 68.9052 162.631 68.9052Z" fill="#BA86FC" stroke="#BA86FC" stroke-miterlimit="10"/>
<path d="M161.503 66.9012C175.517 66.9012 186.877 55.7327 186.877 41.9555C186.877 28.1784 175.517 17.0098 161.503 17.0098C147.49 17.0098 136.13 28.1784 136.13 41.9555C136.13 55.7327 147.49 66.9012 161.503 66.9012Z" fill="#BA86FC" stroke="#BA86FC" stroke-miterlimit="10"/>
<path d="M160.381 64.8993C174.394 64.8993 185.754 53.7307 185.754 39.9536C185.754 26.1764 174.394 15.0078 160.381 15.0078C146.367 15.0078 135.007 26.1764 135.007 39.9536C135.007 53.7307 146.367 64.8993 160.381 64.8993Z" fill="#BA86FC" stroke="#BA86FC" stroke-miterlimit="10"/>
<path d="M159.259 62.8973C173.272 62.8973 184.632 51.7288 184.632 37.9516C184.632 24.1744 173.272 13.0059 159.259 13.0059C145.245 13.0059 133.885 24.1744 133.885 37.9516C133.885 51.7288 145.245 62.8973 159.259 62.8973Z" fill="#BA86FC" stroke="#BA86FC" stroke-miterlimit="10"/>
<path d="M158.13 60.8954C172.144 60.8954 183.504 49.7268 183.504 35.9496C183.504 22.1725 172.144 11.0039 158.13 11.0039C144.117 11.0039 132.757 22.1725 132.757 35.9496C132.757 49.7268 144.117 60.8954 158.13 60.8954Z" fill="#BA86FC" stroke="#BA86FC" stroke-miterlimit="10"/>
<path d="M157.008 58.8993C171.022 58.8993 182.382 47.7307 182.382 33.9536C182.382 20.1764 171.022 9.00781 157.008 9.00781C142.995 9.00781 131.635 20.1764 131.635 33.9536C131.635 47.7307 142.995 58.8993 157.008 58.8993Z" fill="#BA86FC" stroke="#BA86FC" stroke-miterlimit="10"/>
<path d="M155.88 56.8973C169.893 56.8973 181.253 45.7287 181.253 31.9516C181.253 18.1744 169.893 7.00586 155.88 7.00586C141.866 7.00586 130.506 18.1744 130.506 31.9516C130.506 45.7287 141.866 56.8973 155.88 56.8973Z" fill="#BA86FC" stroke="#BA86FC" stroke-miterlimit="10"/>
<path d="M154.758 54.8954C168.771 54.8954 180.131 43.7268 180.131 29.9496C180.131 16.1725 168.771 5.00391 154.758 5.00391C140.744 5.00391 129.384 16.1725 129.384 29.9496C129.384 43.7268 140.744 54.8954 154.758 54.8954Z" fill="#BA86FC" stroke="#BA86FC" stroke-miterlimit="10"/>
<path d="M153.63 52.8934C167.643 52.8934 179.003 41.7248 179.003 27.9477C179.003 14.1705 167.643 3.00195 153.63 3.00195C139.616 3.00195 128.256 14.1705 128.256 27.9477C128.256 41.7248 139.616 52.8934 153.63 52.8934Z" fill="#BA86FC" stroke="#BA86FC" stroke-miterlimit="10"/>
<path d="M152.507 50.8915C166.521 50.8915 177.881 39.7229 177.881 25.9457C177.881 12.1686 166.521 1 152.507 1C138.494 1 127.134 12.1686 127.134 25.9457C127.134 39.7229 138.494 50.8915 152.507 50.8915Z" fill="#BA86FC" stroke="#BA86FC" stroke-miterlimit="10"/>
</svg>
