<svg width="288" height="56" viewBox="0 0 288 56" fill="none" xmlns="http://www.w3.org/2000/svg">
<path d="M16.5534 29.7681V37.9826C15.5639 36.8361 14.0969 36.1104 12.4607 36.1104C10.8246 36.1104 9.23644 36.8952 8.24927 38.1237V29.809C9.56321 29.3381 10.9823 29.0811 12.4607 29.0811C13.9392 29.0811 15.2737 29.3222 16.5534 29.7681Z" fill="#FCF6BD"/>
<path d="M24.9168 41.4838C24.9168 41.8933 24.8962 42.2982 24.8574 42.6986C24.3775 47.5873 21.0504 51.6457 16.5487 53.1994C15.2691 53.6453 13.8888 53.8864 12.4561 53.8864C11.0233 53.8864 9.55857 53.6317 8.24463 53.1585V44.8461C9.23408 46.0745 10.7537 46.8594 12.4561 46.8594C14.1585 46.8594 15.5593 46.1337 16.5487 44.9894C17.3645 44.0476 17.8535 42.8237 17.8535 41.4861C17.8535 40.1485 17.3645 38.9246 16.5487 37.9828V29.7705C21.0504 31.3265 24.3775 35.3826 24.8574 40.2713C24.8962 40.6694 24.9168 41.0744 24.9168 41.4861V41.4838Z" fill="#BA86FC"/>
<path d="M8.24696 29.8086V38.1233C7.5043 39.0446 7.06099 40.2139 7.06099 41.4832C7.06099 42.7526 7.5043 43.9242 8.24696 44.8432V53.1579C3.43909 51.4404 0 46.861 0 41.4832C0 36.1054 3.43909 31.5261 8.24696 29.8086Z" fill="#A9DEF9"/>
<path d="M45.7799 53.8859C51.3152 53.8859 55.8024 49.4187 55.8024 43.9083C55.8024 38.3978 51.3152 33.9307 45.7799 33.9307C40.2447 33.9307 35.7574 38.3978 35.7574 43.9083C35.7574 49.4187 40.2447 53.8859 45.7799 53.8859Z" fill="#BA86FC" stroke="#BA86FC" stroke-miterlimit="10"/>
<path d="M45.3297 53.0851C50.865 53.0851 55.3522 48.618 55.3522 43.1075C55.3522 37.597 50.865 33.1299 45.3297 33.1299C39.7945 33.1299 35.3073 37.597 35.3073 43.1075C35.3073 48.618 39.7945 53.0851 45.3297 53.0851Z" fill="#BA86FC" stroke="#BA86FC" stroke-miterlimit="10"/>
<path d="M44.8795 52.2862C50.4148 52.2862 54.902 47.8191 54.902 42.3087C54.902 36.7982 50.4148 32.3311 44.8795 32.3311C39.3443 32.3311 34.8571 36.7982 34.8571 42.3087C34.8571 47.8191 39.3443 52.2862 44.8795 52.2862Z" fill="#BA86FC" stroke="#BA86FC" stroke-miterlimit="10"/>
<path d="M44.4317 51.4855C49.9669 51.4855 54.4542 47.0183 54.4542 41.5079C54.4542 35.9974 49.9669 31.5303 44.4317 31.5303C38.8964 31.5303 34.4092 35.9974 34.4092 41.5079C34.4092 47.0183 38.8964 51.4855 44.4317 51.4855Z" fill="#BA86FC" stroke="#BA86FC" stroke-miterlimit="10"/>
<path d="M43.9815 50.6847C49.5167 50.6847 54.004 46.2176 54.004 40.7071C54.004 35.1966 49.5167 30.7295 43.9815 30.7295C38.4462 30.7295 33.959 35.1966 33.959 40.7071C33.959 46.2176 38.4462 50.6847 43.9815 50.6847Z" fill="#BA86FC" stroke="#BA86FC" stroke-miterlimit="10"/>
<path d="M43.5314 49.8839C49.0667 49.8839 53.5539 45.4168 53.5539 39.9063C53.5539 34.3958 49.0667 29.9287 43.5314 29.9287C37.9961 29.9287 33.5089 34.3958 33.5089 39.9063C33.5089 45.4168 37.9961 49.8839 43.5314 49.8839Z" fill="#BA86FC" stroke="#BA86FC" stroke-miterlimit="10"/>
<path d="M43.0812 49.0831C48.6165 49.0831 53.1037 44.616 53.1037 39.1055C53.1037 33.595 48.6165 29.1279 43.0812 29.1279C37.5459 29.1279 33.0587 33.595 33.0587 39.1055C33.0587 44.616 37.5459 49.0831 43.0812 49.0831Z" fill="#BA86FC" stroke="#BA86FC" stroke-miterlimit="10"/>
<path d="M42.631 48.2823C48.1663 48.2823 52.6535 43.8152 52.6535 38.3047C52.6535 32.7943 48.1663 28.3271 42.631 28.3271C37.0957 28.3271 32.6085 32.7943 32.6085 38.3047C32.6085 43.8152 37.0957 48.2823 42.631 48.2823Z" fill="#BA86FC" stroke="#BA86FC" stroke-miterlimit="10"/>
<path d="M42.1808 47.4816C47.7161 47.4816 52.2033 43.0144 52.2033 37.504C52.2033 31.9935 47.7161 27.5264 42.1808 27.5264C36.6455 27.5264 32.1583 31.9935 32.1583 37.504C32.1583 43.0144 36.6455 47.4816 42.1808 47.4816Z" fill="#BA86FC" stroke="#BA86FC" stroke-miterlimit="10"/>
<path d="M41.7307 46.6837C47.266 46.6837 51.7532 42.2166 51.7532 36.7061C51.7532 31.1956 47.266 26.7285 41.7307 26.7285C36.1955 26.7285 31.7083 31.1956 31.7083 36.7061C31.7083 42.2166 36.1955 46.6837 41.7307 46.6837Z" fill="#BA86FC" stroke="#BA86FC" stroke-miterlimit="10"/>
<path d="M41.2805 45.8829C46.8158 45.8829 51.303 41.4158 51.303 35.9053C51.303 30.3949 46.8158 25.9277 41.2805 25.9277C35.7453 25.9277 31.2581 30.3949 31.2581 35.9053C31.2581 41.4158 35.7453 45.8829 41.2805 45.8829Z" fill="#BA86FC" stroke="#BA86FC" stroke-miterlimit="10"/>
<path d="M40.8303 45.0821C46.3656 45.0821 50.8528 40.615 50.8528 35.1045C50.8528 29.5941 46.3656 25.127 40.8303 25.127C35.2951 25.127 30.8079 29.5941 30.8079 35.1045C30.8079 40.615 35.2951 45.0821 40.8303 45.0821Z" fill="#BA86FC" stroke="#BA86FC" stroke-miterlimit="10"/>
<path d="M40.3825 44.2814C45.9177 44.2814 50.405 39.8142 50.405 34.3038C50.405 28.7933 45.9177 24.3262 40.3825 24.3262C34.8472 24.3262 30.36 28.7933 30.36 34.3038C30.36 39.8142 34.8472 44.2814 40.3825 44.2814Z" fill="#BA86FC" stroke="#BA86FC" stroke-miterlimit="10"/>
<path d="M39.9323 43.4806C45.4676 43.4806 49.9548 39.0135 49.9548 33.503C49.9548 27.9925 45.4676 23.5254 39.9323 23.5254C34.397 23.5254 29.9098 27.9925 29.9098 33.503C29.9098 39.0135 34.397 43.4806 39.9323 43.4806Z" fill="#BA86FC" stroke="#BA86FC" stroke-miterlimit="10"/>
<path d="M39.4821 42.6798C45.0174 42.6798 49.5046 38.2127 49.5046 32.7022C49.5046 27.1917 45.0174 22.7246 39.4821 22.7246C33.9468 22.7246 29.4596 27.1917 29.4596 32.7022C29.4596 38.2127 33.9468 42.6798 39.4821 42.6798Z" fill="#BA86FC" stroke="#BA86FC" stroke-miterlimit="10"/>
<path d="M39.032 41.879C44.5673 41.879 49.0545 37.4119 49.0545 31.9014C49.0545 26.3909 44.5673 21.9238 39.032 21.9238C33.4967 21.9238 29.0095 26.3909 29.0095 31.9014C29.0095 37.4119 33.4967 41.879 39.032 41.879Z" fill="#BA86FC" stroke="#BA86FC" stroke-miterlimit="10"/>
<path d="M38.5818 41.0802C44.1171 41.0802 48.6043 36.6131 48.6043 31.1026C48.6043 25.5921 44.1171 21.125 38.5818 21.125C33.0465 21.125 28.5593 25.5921 28.5593 31.1026C28.5593 36.6131 33.0465 41.0802 38.5818 41.0802Z" fill="#BA86FC" stroke="#BA86FC" stroke-miterlimit="10"/>
<path d="M38.1316 40.2794C43.6669 40.2794 48.1541 35.8123 48.1541 30.3018C48.1541 24.7913 43.6669 20.3242 38.1316 20.3242C32.5964 20.3242 28.1091 24.7913 28.1091 30.3018C28.1091 35.8123 32.5964 40.2794 38.1316 40.2794Z" fill="#BA86FC" stroke="#BA86FC" stroke-miterlimit="10"/>
<path d="M37.6814 39.4786C43.2167 39.4786 47.7039 35.0115 47.7039 29.501C47.7039 23.9906 43.2167 19.5234 37.6814 19.5234C32.1462 19.5234 27.6589 23.9906 27.6589 29.501C27.6589 35.0115 32.1462 39.4786 37.6814 39.4786Z" fill="#BA86FC" stroke="#BA86FC" stroke-miterlimit="10"/>
<path d="M37.2314 38.6778C42.7666 38.6778 47.2538 34.2107 47.2538 28.7002C47.2538 23.1898 42.7666 18.7227 37.2314 18.7227C31.6961 18.7227 27.2089 23.1898 27.2089 28.7002C27.2089 34.2107 31.6961 38.6778 37.2314 38.6778Z" fill="#BA86FC" stroke="#BA86FC" stroke-miterlimit="10"/>
<path d="M36.7812 37.8771C42.3164 37.8771 46.8037 33.4099 46.8037 27.8995C46.8037 22.389 42.3164 17.9219 36.7812 17.9219C31.2459 17.9219 26.7587 22.389 26.7587 27.8995C26.7587 33.4099 31.2459 37.8771 36.7812 37.8771Z" fill="#BA86FC" stroke="#BA86FC" stroke-miterlimit="10"/>
<path d="M36.3333 37.0763C41.8686 37.0763 46.3558 32.6092 46.3558 27.0987C46.3558 21.5882 41.8686 17.1211 36.3333 17.1211C30.798 17.1211 26.3108 21.5882 26.3108 27.0987C26.3108 32.6092 30.798 37.0763 36.3333 37.0763Z" fill="#BA86FC" stroke="#BA86FC" stroke-miterlimit="10"/>
<path d="M35.8831 36.2765C41.4184 36.2765 45.9056 31.8094 45.9056 26.2989C45.9056 20.7884 41.4184 16.3213 35.8831 16.3213C30.3478 16.3213 25.8606 20.7884 25.8606 26.2989C25.8606 31.8094 30.3478 36.2765 35.8831 36.2765Z" fill="#BA86FC" stroke="#BA86FC" stroke-miterlimit="10"/>
<path d="M35.4329 35.4777C40.9682 35.4777 45.4554 31.0105 45.4554 25.5001C45.4554 19.9896 40.9682 15.5225 35.4329 15.5225C29.8976 15.5225 25.4104 19.9896 25.4104 25.5001C25.4104 31.0105 29.8976 35.4777 35.4329 35.4777Z" fill="#BA86FC" stroke="#BA86FC" stroke-miterlimit="10"/>
<path d="M34.9828 34.6769C40.5181 34.6769 45.0053 30.2097 45.0053 24.6993C45.0053 19.1888 40.5181 14.7217 34.9828 14.7217C29.4475 14.7217 24.9603 19.1888 24.9603 24.6993C24.9603 30.2097 29.4475 34.6769 34.9828 34.6769Z" fill="#BA86FC" stroke="#BA86FC" stroke-miterlimit="10"/>
<path d="M34.5326 33.8761C40.0679 33.8761 44.5551 29.409 44.5551 23.8985C44.5551 18.388 40.0679 13.9209 34.5326 13.9209C28.9974 13.9209 24.5101 18.388 24.5101 23.8985C24.5101 29.409 28.9974 33.8761 34.5326 33.8761Z" fill="#BA86FC" stroke="#BA86FC" stroke-miterlimit="10"/>
<path d="M34.0824 33.0753C39.6177 33.0753 44.1049 28.6082 44.1049 23.0977C44.1049 17.5872 39.6177 13.1201 34.0824 13.1201C28.5472 13.1201 24.0599 17.5872 24.0599 23.0977C24.0599 28.6082 28.5472 33.0753 34.0824 33.0753Z" fill="#BA86FC" stroke="#BA86FC" stroke-miterlimit="10"/>
<path d="M33.6322 32.2745C39.1675 32.2745 43.6547 27.8074 43.6547 22.2969C43.6547 16.7865 39.1675 12.3193 33.6322 12.3193C28.097 12.3193 23.6097 16.7865 23.6097 22.2969C23.6097 27.8074 28.097 32.2745 33.6322 32.2745Z" fill="#BA86FC" stroke="#BA86FC" stroke-miterlimit="10"/>
<path d="M33.1822 31.4737C38.7174 31.4737 43.2047 27.0066 43.2047 21.4961C43.2047 15.9857 38.7174 11.5186 33.1822 11.5186C27.6469 11.5186 23.1597 15.9857 23.1597 21.4961C23.1597 27.0066 27.6469 31.4737 33.1822 31.4737Z" fill="#BA86FC" stroke="#BA86FC" stroke-miterlimit="10"/>
<path d="M32.7342 30.673C38.2694 30.673 42.7567 26.2058 42.7567 20.6954C42.7567 15.1849 38.2694 10.7178 32.7342 10.7178C27.1989 10.7178 22.7117 15.1849 22.7117 20.6954C22.7117 26.2058 27.1989 30.673 32.7342 30.673Z" fill="#BA86FC" stroke="#BA86FC" stroke-miterlimit="10"/>
<path d="M32.2841 29.8741C37.8194 29.8741 42.3066 25.407 42.3066 19.8965C42.3066 14.3861 37.8194 9.91895 32.2841 9.91895C26.7488 9.91895 22.2616 14.3861 22.2616 19.8965C22.2616 25.407 26.7488 29.8741 32.2841 29.8741Z" fill="#BA86FC" stroke="#BA86FC" stroke-miterlimit="10"/>
<path d="M31.8339 29.0734C37.3692 29.0734 41.8564 24.6062 41.8564 19.0958C41.8564 13.5853 37.3692 9.11816 31.8339 9.11816C26.2986 9.11816 21.8114 13.5853 21.8114 19.0958C21.8114 24.6062 26.2986 29.0734 31.8339 29.0734Z" fill="#BA86FC" stroke="#BA86FC" stroke-miterlimit="10"/>
<path d="M31.3837 28.2726C36.919 28.2726 41.4062 23.8055 41.4062 18.295C41.4062 12.7845 36.919 8.31738 31.3837 8.31738C25.8484 8.31738 21.3612 12.7845 21.3612 18.295C21.3612 23.8055 25.8484 28.2726 31.3837 28.2726Z" fill="#BA86FC" stroke="#BA86FC" stroke-miterlimit="10"/>
<path d="M30.9335 27.4718C36.4688 27.4718 40.956 23.0047 40.956 17.4942C40.956 11.9837 36.4688 7.5166 30.9335 7.5166C25.3982 7.5166 20.911 11.9837 20.911 17.4942C20.911 23.0047 25.3982 27.4718 30.9335 27.4718Z" fill="#BA86FC" stroke="#BA86FC" stroke-miterlimit="10"/>
<path d="M30.4834 26.671C36.0187 26.671 40.5059 22.2039 40.5059 16.6934C40.5059 11.1829 36.0187 6.71582 30.4834 6.71582C24.9482 6.71582 20.4609 11.1829 20.4609 16.6934C20.4609 22.2039 24.9482 26.671 30.4834 26.671Z" fill="#BA86FC" stroke="#BA86FC" stroke-miterlimit="10"/>
<path d="M30.0332 25.8712C35.5685 25.8712 40.0557 21.4041 40.0557 15.8936C40.0557 10.3831 35.5685 5.91602 30.0332 5.91602C24.498 5.91602 20.0107 10.3831 20.0107 15.8936C20.0107 21.4041 24.498 25.8712 30.0332 25.8712Z" fill="#BA86FC" stroke="#BA86FC" stroke-miterlimit="10"/>
<path d="M29.583 25.0704C35.1183 25.0704 39.6055 20.6033 39.6055 15.0928C39.6055 9.58236 35.1183 5.11523 29.583 5.11523C24.0478 5.11523 19.5605 9.58236 19.5605 15.0928C19.5605 20.6033 24.0478 25.0704 29.583 25.0704Z" fill="#BA86FC" stroke="#BA86FC" stroke-miterlimit="10"/>
<path d="M29.1328 24.2716C34.6681 24.2716 39.1553 19.8045 39.1553 14.294C39.1553 8.78353 34.6681 4.31641 29.1328 4.31641C23.5976 4.31641 19.1104 8.78353 19.1104 14.294C19.1104 19.8045 23.5976 24.2716 29.1328 24.2716Z" fill="#BA86FC" stroke="#BA86FC" stroke-miterlimit="10"/>
<path d="M28.685 23.4708C34.2202 23.4708 38.7075 19.0037 38.7075 13.4932C38.7075 7.98275 34.2202 3.51562 28.685 3.51562C23.1497 3.51562 18.6625 7.98275 18.6625 13.4932C18.6625 19.0037 23.1497 23.4708 28.685 23.4708Z" fill="#BA86FC" stroke="#BA86FC" stroke-miterlimit="10"/>
<path d="M28.2349 22.67C33.7702 22.67 38.2574 18.2029 38.2574 12.6924C38.2574 7.18197 33.7702 2.71484 28.2349 2.71484C22.6996 2.71484 18.2124 7.18197 18.2124 12.6924C18.2124 18.2029 22.6996 22.67 28.2349 22.67Z" fill="#BA86FC" stroke="#BA86FC" stroke-miterlimit="10"/>
<path d="M27.7847 21.8693C33.32 21.8693 37.8072 17.4021 37.8072 11.8917C37.8072 6.38118 33.32 1.91406 27.7847 1.91406C22.2494 1.91406 17.7622 6.38118 17.7622 11.8917C17.7622 17.4021 22.2494 21.8693 27.7847 21.8693Z" fill="#BA86FC" stroke="#BA86FC" stroke-miterlimit="10"/>
<path d="M27.3345 21.0685C32.8698 21.0685 37.357 16.6014 37.357 11.0909C37.357 5.5804 32.8698 1.11328 27.3345 1.11328C21.7992 1.11328 17.312 5.5804 17.312 11.0909C17.312 16.6014 21.7992 21.0685 27.3345 21.0685Z" fill="#BA86FC" stroke="#BA86FC" stroke-miterlimit="10"/>
<path d="M78.4569 53.8859C83.9922 53.8859 88.4794 49.4187 88.4794 43.9083C88.4794 38.3978 83.9922 33.9307 78.4569 33.9307C72.9217 33.9307 68.4344 38.3978 68.4344 43.9083C68.4344 49.4187 72.9217 53.8859 78.4569 53.8859Z" fill="#BA86FC" stroke="#BA86FC" stroke-miterlimit="10"/>
<path d="M78.0136 53.0851C83.5488 53.0851 88.0361 48.618 88.0361 43.1075C88.0361 37.597 83.5488 33.1299 78.0136 33.1299C72.4783 33.1299 67.9911 37.597 67.9911 43.1075C67.9911 48.618 72.4783 53.0851 78.0136 53.0851Z" fill="#BA86FC" stroke="#BA86FC" stroke-miterlimit="10"/>
<path d="M77.568 52.2862C83.1033 52.2862 87.5905 47.8191 87.5905 42.3087C87.5905 36.7982 83.1033 32.3311 77.568 32.3311C72.0328 32.3311 67.5455 36.7982 67.5455 42.3087C67.5455 47.8191 72.0328 52.2862 77.568 52.2862Z" fill="#BA86FC" stroke="#BA86FC" stroke-miterlimit="10"/>
<path d="M77.1247 51.4855C82.6599 51.4855 87.1472 47.0183 87.1472 41.5079C87.1472 35.9974 82.6599 31.5303 77.1247 31.5303C71.5894 31.5303 67.1022 35.9974 67.1022 41.5079C67.1022 47.0183 71.5894 51.4855 77.1247 51.4855Z" fill="#BA86FC" stroke="#BA86FC" stroke-miterlimit="10"/>
<path d="M76.6791 50.6847C82.2144 50.6847 86.7016 46.2176 86.7016 40.7071C86.7016 35.1966 82.2144 30.7295 76.6791 30.7295C71.1438 30.7295 66.6566 35.1966 66.6566 40.7071C66.6566 46.2176 71.1438 50.6847 76.6791 50.6847Z" fill="#BA86FC" stroke="#BA86FC" stroke-miterlimit="10"/>
<path d="M76.2357 49.8839C81.771 49.8839 86.2582 45.4168 86.2582 39.9063C86.2582 34.3958 81.771 29.9287 76.2357 29.9287C70.7005 29.9287 66.2133 34.3958 66.2133 39.9063C66.2133 45.4168 70.7005 49.8839 76.2357 49.8839Z" fill="#BA86FC" stroke="#BA86FC" stroke-miterlimit="10"/>
<path d="M75.7925 49.0831C81.3278 49.0831 85.815 44.616 85.815 39.1055C85.815 33.595 81.3278 29.1279 75.7925 29.1279C70.2572 29.1279 65.77 33.595 65.77 39.1055C65.77 44.616 70.2572 49.0831 75.7925 49.0831Z" fill="#BA86FC" stroke="#BA86FC" stroke-miterlimit="10"/>
<path d="M75.3468 48.2823C80.8821 48.2823 85.3693 43.8152 85.3693 38.3047C85.3693 32.7943 80.8821 28.3271 75.3468 28.3271C69.8116 28.3271 65.3243 32.7943 65.3243 38.3047C65.3243 43.8152 69.8116 48.2823 75.3468 48.2823Z" fill="#BA86FC" stroke="#BA86FC" stroke-miterlimit="10"/>
<path d="M74.9036 47.4816C80.4389 47.4816 84.9261 43.0144 84.9261 37.504C84.9261 31.9935 80.4389 27.5264 74.9036 27.5264C69.3683 27.5264 64.8811 31.9935 64.8811 37.504C64.8811 43.0144 69.3683 47.4816 74.9036 47.4816Z" fill="#BA86FC" stroke="#BA86FC" stroke-miterlimit="10"/>
<path d="M74.458 46.6837C79.9933 46.6837 84.4805 42.2166 84.4805 36.7061C84.4805 31.1956 79.9933 26.7285 74.458 26.7285C68.9228 26.7285 64.4355 31.1956 64.4355 36.7061C64.4355 42.2166 68.9228 46.6837 74.458 46.6837Z" fill="#BA86FC" stroke="#BA86FC" stroke-miterlimit="10"/>
<path d="M74.0147 45.8829C79.5499 45.8829 84.0372 41.4158 84.0372 35.9053C84.0372 30.3949 79.5499 25.9277 74.0147 25.9277C68.4794 25.9277 63.9922 30.3949 63.9922 35.9053C63.9922 41.4158 68.4794 45.8829 74.0147 45.8829Z" fill="#BA86FC" stroke="#BA86FC" stroke-miterlimit="10"/>
<path d="M73.5691 45.0821C79.1044 45.0821 83.5916 40.615 83.5916 35.1045C83.5916 29.5941 79.1044 25.127 73.5691 25.127C68.0339 25.127 63.5466 29.5941 63.5466 35.1045C63.5466 40.615 68.0339 45.0821 73.5691 45.0821Z" fill="#BA86FC" stroke="#BA86FC" stroke-miterlimit="10"/>
<path d="M73.1258 44.2814C78.661 44.2814 83.1483 39.8142 83.1483 34.3038C83.1483 28.7933 78.661 24.3262 73.1258 24.3262C67.5905 24.3262 63.1033 28.7933 63.1033 34.3038C63.1033 39.8142 67.5905 44.2814 73.1258 44.2814Z" fill="#BA86FC" stroke="#BA86FC" stroke-miterlimit="10"/>
<path d="M72.6802 43.4806C78.2155 43.4806 82.7027 39.0135 82.7027 33.503C82.7027 27.9925 78.2155 23.5254 72.6802 23.5254C67.1449 23.5254 62.6577 27.9925 62.6577 33.503C62.6577 39.0135 67.1449 43.4806 72.6802 43.4806Z" fill="#BA86FC" stroke="#BA86FC" stroke-miterlimit="10"/>
<path d="M72.2368 42.6798C77.7721 42.6798 82.2593 38.2127 82.2593 32.7022C82.2593 27.1917 77.7721 22.7246 72.2368 22.7246C66.7016 22.7246 62.2144 27.1917 62.2144 32.7022C62.2144 38.2127 66.7016 42.6798 72.2368 42.6798Z" fill="#BA86FC" stroke="#BA86FC" stroke-miterlimit="10"/>
<path d="M71.7913 41.879C77.3266 41.879 81.8138 37.4119 81.8138 31.9014C81.8138 26.3909 77.3266 21.9238 71.7913 21.9238C66.256 21.9238 61.7688 26.3909 61.7688 31.9014C61.7688 37.4119 66.256 41.879 71.7913 41.879Z" fill="#BA86FC" stroke="#BA86FC" stroke-miterlimit="10"/>
<path d="M71.3479 41.0802C76.8832 41.0802 81.3704 36.6131 81.3704 31.1026C81.3704 25.5921 76.8832 21.125 71.3479 21.125C65.8127 21.125 61.3254 25.5921 61.3254 31.1026C61.3254 36.6131 65.8127 41.0802 71.3479 41.0802Z" fill="#BA86FC" stroke="#BA86FC" stroke-miterlimit="10"/>
<path d="M70.9046 40.2794C76.4398 40.2794 80.9271 35.8123 80.9271 30.3018C80.9271 24.7913 76.4398 20.3242 70.9046 20.3242C65.3693 20.3242 60.8821 24.7913 60.8821 30.3018C60.8821 35.8123 65.3693 40.2794 70.9046 40.2794Z" fill="#BA86FC" stroke="#BA86FC" stroke-miterlimit="10"/>
<path d="M70.459 39.4786C75.9943 39.4786 80.4815 35.0115 80.4815 29.501C80.4815 23.9906 75.9943 19.5234 70.459 19.5234C64.9237 19.5234 60.4365 23.9906 60.4365 29.501C60.4365 35.0115 64.9237 39.4786 70.459 39.4786Z" fill="#BA86FC" stroke="#BA86FC" stroke-miterlimit="10"/>
<path d="M70.0158 38.6778C75.551 38.6778 80.0383 34.2107 80.0383 28.7002C80.0383 23.1898 75.551 18.7227 70.0158 18.7227C64.4805 18.7227 59.9933 23.1898 59.9933 28.7002C59.9933 34.2107 64.4805 38.6778 70.0158 38.6778Z" fill="#BA86FC" stroke="#BA86FC" stroke-miterlimit="10"/>
<path d="M69.5701 37.8771C75.1054 37.8771 79.5926 33.4099 79.5926 27.8995C79.5926 22.389 75.1054 17.9219 69.5701 17.9219C64.0348 17.9219 59.5476 22.389 59.5476 27.8995C59.5476 33.4099 64.0348 37.8771 69.5701 37.8771Z" fill="#BA86FC" stroke="#BA86FC" stroke-miterlimit="10"/>
<path d="M69.1269 37.0763C74.6621 37.0763 79.1494 32.6092 79.1494 27.0987C79.1494 21.5882 74.6621 17.1211 69.1269 17.1211C63.5916 17.1211 59.1044 21.5882 59.1044 27.0987C59.1044 32.6092 63.5916 37.0763 69.1269 37.0763Z" fill="#BA86FC" stroke="#BA86FC" stroke-miterlimit="10"/>
<path d="M68.6812 36.2765C74.2164 36.2765 78.7037 31.8094 78.7037 26.2989C78.7037 20.7884 74.2164 16.3213 68.6812 16.3213C63.1459 16.3213 58.6587 20.7884 58.6587 26.2989C58.6587 31.8094 63.1459 36.2765 68.6812 36.2765Z" fill="#BA86FC" stroke="#BA86FC" stroke-miterlimit="10"/>
<path d="M68.2379 35.4777C73.7732 35.4777 78.2604 31.0105 78.2604 25.5001C78.2604 19.9896 73.7732 15.5225 68.2379 15.5225C62.7027 15.5225 58.2155 19.9896 58.2155 25.5001C58.2155 31.0105 62.7027 35.4777 68.2379 35.4777Z" fill="#BA86FC" stroke="#BA86FC" stroke-miterlimit="10"/>
<path d="M67.7923 34.6769C73.3275 34.6769 77.8148 30.2097 77.8148 24.6993C77.8148 19.1888 73.3275 14.7217 67.7923 14.7217C62.257 14.7217 57.7698 19.1888 57.7698 24.6993C57.7698 30.2097 62.257 34.6769 67.7923 34.6769Z" fill="#BA86FC" stroke="#BA86FC" stroke-miterlimit="10"/>
<path d="M67.349 33.8761C72.8843 33.8761 77.3715 29.409 77.3715 23.8985C77.3715 18.388 72.8843 13.9209 67.349 13.9209C61.8138 13.9209 57.3265 18.388 57.3265 23.8985C57.3265 29.409 61.8138 33.8761 67.349 33.8761Z" fill="#BA86FC" stroke="#BA86FC" stroke-miterlimit="10"/>
<path d="M66.9057 33.0753C72.4409 33.0753 76.9282 28.6082 76.9282 23.0977C76.9282 17.5872 72.4409 13.1201 66.9057 13.1201C61.3704 13.1201 56.8832 17.5872 56.8832 23.0977C56.8832 28.6082 61.3704 33.0753 66.9057 33.0753Z" fill="#BA86FC" stroke="#BA86FC" stroke-miterlimit="10"/>
<path d="M66.4601 32.2745C71.9954 32.2745 76.4826 27.8074 76.4826 22.2969C76.4826 16.7865 71.9954 12.3193 66.4601 12.3193C60.9248 12.3193 56.4376 16.7865 56.4376 22.2969C56.4376 27.8074 60.9248 32.2745 66.4601 32.2745Z" fill="#BA86FC" stroke="#BA86FC" stroke-miterlimit="10"/>
<path d="M66.0168 31.4737C71.552 31.4737 76.0393 27.0066 76.0393 21.4961C76.0393 15.9857 71.552 11.5186 66.0168 11.5186C60.4815 11.5186 55.9943 15.9857 55.9943 21.4961C55.9943 27.0066 60.4815 31.4737 66.0168 31.4737Z" fill="#BA86FC" stroke="#BA86FC" stroke-miterlimit="10"/>
<path d="M65.5712 30.673C71.1065 30.673 75.5937 26.2058 75.5937 20.6954C75.5937 15.1849 71.1065 10.7178 65.5712 10.7178C60.0359 10.7178 55.5487 15.1849 55.5487 20.6954C55.5487 26.2058 60.0359 30.673 65.5712 30.673Z" fill="#BA86FC" stroke="#BA86FC" stroke-miterlimit="10"/>
<path d="M65.1278 29.8741C70.6631 29.8741 75.1503 25.407 75.1503 19.8965C75.1503 14.3861 70.6631 9.91895 65.1278 9.91895C59.5926 9.91895 55.1053 14.3861 55.1053 19.8965C55.1053 25.407 59.5926 29.8741 65.1278 29.8741Z" fill="#BA86FC" stroke="#BA86FC" stroke-miterlimit="10"/>
<path d="M64.6823 29.0734C70.2176 29.0734 74.7048 24.6062 74.7048 19.0958C74.7048 13.5853 70.2176 9.11816 64.6823 9.11816C59.147 9.11816 54.6598 13.5853 54.6598 19.0958C54.6598 24.6062 59.147 29.0734 64.6823 29.0734Z" fill="#BA86FC" stroke="#BA86FC" stroke-miterlimit="10"/>
<path d="M64.2389 28.2726C69.7742 28.2726 74.2614 23.8055 74.2614 18.295C74.2614 12.7845 69.7742 8.31738 64.2389 8.31738C58.7037 8.31738 54.2164 12.7845 54.2164 18.295C54.2164 23.8055 58.7037 28.2726 64.2389 28.2726Z" fill="#BA86FC" stroke="#BA86FC" stroke-miterlimit="10"/>
<path d="M63.7934 27.4718C69.3286 27.4718 73.8159 23.0047 73.8159 17.4942C73.8159 11.9837 69.3286 7.5166 63.7934 7.5166C58.2581 7.5166 53.7709 11.9837 53.7709 17.4942C53.7709 23.0047 58.2581 27.4718 63.7934 27.4718Z" fill="#BA86FC" stroke="#BA86FC" stroke-miterlimit="10"/>
<path d="M63.35 26.671C68.8853 26.671 73.3725 22.2039 73.3725 16.6934C73.3725 11.1829 68.8853 6.71582 63.35 6.71582C57.8147 6.71582 53.3275 11.1829 53.3275 16.6934C53.3275 22.2039 57.8147 26.671 63.35 26.671Z" fill="#BA86FC" stroke="#BA86FC" stroke-miterlimit="10"/>
<path d="M62.9068 25.8712C68.442 25.8712 72.9293 21.4041 72.9293 15.8936C72.9293 10.3831 68.442 5.91602 62.9068 5.91602C57.3715 5.91602 52.8843 10.3831 52.8843 15.8936C52.8843 21.4041 57.3715 25.8712 62.9068 25.8712Z" fill="#BA86FC" stroke="#BA86FC" stroke-miterlimit="10"/>
<path d="M62.4611 25.0704C67.9964 25.0704 72.4836 20.6033 72.4836 15.0928C72.4836 9.58236 67.9964 5.11523 62.4611 5.11523C56.9258 5.11523 52.4386 9.58236 52.4386 15.0928C52.4386 20.6033 56.9258 25.0704 62.4611 25.0704Z" fill="#BA86FC" stroke="#BA86FC" stroke-miterlimit="10"/>
<path d="M62.0179 24.2716C67.5531 24.2716 72.0403 19.8045 72.0403 14.294C72.0403 8.78353 67.5531 4.31641 62.0179 4.31641C56.4826 4.31641 51.9954 8.78353 51.9954 14.294C51.9954 19.8045 56.4826 24.2716 62.0179 24.2716Z" fill="#BA86FC" stroke="#BA86FC" stroke-miterlimit="10"/>
<path d="M61.5723 23.4708C67.1076 23.4708 71.5948 19.0037 71.5948 13.4932C71.5948 7.98275 67.1076 3.51562 61.5723 3.51562C56.037 3.51562 51.5498 7.98275 51.5498 13.4932C51.5498 19.0037 56.037 23.4708 61.5723 23.4708Z" fill="#BA86FC" stroke="#BA86FC" stroke-miterlimit="10"/>
<path d="M61.1289 22.67C66.6642 22.67 71.1514 18.2029 71.1514 12.6924C71.1514 7.18197 66.6642 2.71484 61.1289 2.71484C55.5937 2.71484 51.1064 7.18197 51.1064 12.6924C51.1064 18.2029 55.5937 22.67 61.1289 22.67Z" fill="#BA86FC" stroke="#BA86FC" stroke-miterlimit="10"/>
<path d="M60.6834 21.8693C66.2187 21.8693 70.7059 17.4021 70.7059 11.8917C70.7059 6.38118 66.2187 1.91406 60.6834 1.91406C55.1481 1.91406 50.6609 6.38118 50.6609 11.8917C50.6609 17.4021 55.1481 21.8693 60.6834 21.8693Z" fill="#BA86FC" stroke="#BA86FC" stroke-miterlimit="10"/>
<path d="M60.24 21.0685C65.7753 21.0685 70.2625 16.6014 70.2625 11.0909C70.2625 5.5804 65.7753 1.11328 60.24 1.11328C54.7048 1.11328 50.2175 5.5804 50.2175 11.0909C50.2175 16.6014 54.7048 21.0685 60.24 21.0685Z" fill="#BA86FC" stroke="#BA86FC" stroke-miterlimit="10"/>
<path d="M98.5936 41.4646L104.31 7.87207H112.961L119.791 25.8016L127.026 7.87207H135.779L140.839 41.4646H132.085L129.605 22.1245L121.46 41.4646H117.97L110.178 22.1245L107.293 41.4646H98.5911H98.5936Z" fill="#BA86FC"/>
<path d="M161.683 18.9515H169.777V41.4647H161.683V38.9956C159.81 41.5635 156.877 42.2194 154.652 42.2194C152.222 42.2194 149.238 41.5154 146.506 38.6436C144.331 36.3265 143.268 33.7586 143.268 30.3829C143.268 26.1512 144.937 23.1807 146.758 21.3675C148.681 19.4529 151.665 18.1943 154.903 18.1943C158.546 18.1943 160.721 20.0582 161.683 21.1167V18.9515ZM153.181 26.5057C152.067 27.5643 151.563 29.023 151.563 30.1828C151.563 31.4921 152.121 32.9026 153.133 33.8599C153.993 34.6652 155.41 35.3717 156.776 35.3717C158.142 35.3717 159.406 34.8171 160.418 33.8092C161.126 33.1052 161.937 31.996 161.937 30.1828C161.937 29.1243 161.634 27.7137 160.368 26.5057C159.61 25.8017 158.444 25.0445 156.725 25.0445C155.712 25.0445 154.346 25.3965 153.184 26.5057H153.181Z" fill="#BA86FC" stroke="#BA86FC" stroke-miterlimit="10"/>
<path d="M177.923 5.05078C180.451 5.05078 182.476 7.06659 182.476 9.58381C182.476 12.101 180.451 14.1168 177.923 14.1168C175.394 14.1168 173.369 12.101 173.369 9.58381C173.369 7.06659 175.394 5.05078 177.923 5.05078ZM181.97 18.9512V52.9971H173.875V18.9512H181.97Z" fill="#BA86FC" stroke="#BA86FC" stroke-miterlimit="10"/>
<path d="M185.259 41.4646L190.975 7.87207H199.626L206.457 25.8016L213.691 7.87207H222.444L227.504 41.4646H218.751L216.271 22.1245L208.125 41.4646H204.635L196.843 22.1245L193.959 41.4646H185.256H185.259Z" fill="#BA86FC"/>
<path d="M248.348 18.9515H256.442V41.4647H248.348V38.9956C246.476 41.5635 243.543 42.2194 241.317 42.2194C238.888 42.2194 235.904 41.5154 233.172 38.6436C230.997 36.3265 229.933 33.7586 229.933 30.3829C229.933 26.1512 231.602 23.1807 233.423 21.3675C235.347 19.4529 238.33 18.1943 241.569 18.1943C245.212 18.1943 247.386 20.0582 248.348 21.1167V18.9515ZM239.849 26.5057C238.735 27.5643 238.231 29.023 238.231 30.1828C238.231 31.4921 238.788 32.9026 239.801 33.8599C240.661 34.6652 242.078 35.3717 243.444 35.3717C244.81 35.3717 246.074 34.8171 247.086 33.8092C247.793 33.1052 248.605 31.996 248.605 30.1828C248.605 29.1243 248.302 27.7137 247.035 26.5057C246.277 25.8017 245.112 25.0445 243.393 25.0445C242.38 25.0445 241.014 25.3965 239.852 26.5057H239.849Z" fill="#BA86FC" stroke="#BA86FC" stroke-miterlimit="10"/>
<path d="M268.635 52.9968H260.541V18.9509H268.635V21.4201C270.052 19.6575 272.227 18.1963 275.567 18.1963C278.907 18.1963 281.789 19.6575 283.61 21.4707C285.483 23.3346 287.05 26.3051 287.05 30.1848C287.05 34.0644 285.582 36.9843 283.407 39.0989C280.878 41.568 277.943 42.2214 275.666 42.2214C274.198 42.2214 271.164 41.92 268.635 39.299V52.9993V52.9968ZM269.95 26.5558C268.938 27.5637 268.381 29.0249 268.381 30.2835C268.381 31.5421 269.088 33.0034 269.95 33.8593C270.912 34.8166 272.227 35.3712 273.593 35.3712C274.959 35.3712 276.274 34.8166 277.185 33.8593C278.045 33.0034 278.754 31.6434 278.754 30.2835C278.754 29.0249 278.197 27.5637 277.185 26.5558C276.274 25.5986 275.01 25.044 273.593 25.044C272.176 25.044 270.912 25.5986 269.95 26.5558Z" fill="#BA86FC"/>
</svg>
