<svg width="31" height="28" viewBox="0 0 31 28" fill="none" xmlns="http://www.w3.org/2000/svg">
<g id="Group 2">
<path id="Vector" d="M1.64453 19.9497C1.64453 18.7913 1.64453 18.2121 1.87001 17.7694C2.06834 17.3802 2.38478 17.0637 2.77401 16.8654C3.21669 16.6399 3.79591 16.6399 4.95435 16.6399H11.6333C12.7917 16.6399 13.3709 16.6399 13.8136 16.8654C14.2026 17.0638 14.5188 17.3803 14.7169 17.7694C14.9431 18.2121 14.9431 18.7913 14.9431 19.9497V23.6733C14.9431 24.8317 14.9431 25.4109 14.7176 25.8536C14.5193 26.2428 14.2028 26.5593 13.8136 26.7576C13.3709 26.9831 12.7917 26.9831 11.6333 26.9831H4.95435C3.79591 26.9831 3.21669 26.9831 2.77401 26.7576C2.38504 26.5592 2.06885 26.2427 1.8707 25.8536C1.64453 25.4109 1.64453 24.8317 1.64453 23.6733V19.9497Z" stroke="#E3E3E3" stroke-width="1.40372" stroke-linecap="round" stroke-linejoin="round"/>
<path id="Vector_2" d="M11.9753 12.5027C10.3963 12.5027 9.40814 10.7802 10.1956 9.39971L14.5177 1.81885C15.3065 0.434244 17.2883 0.434244 18.0778 1.81885L22.3992 9.39971C23.1866 10.7802 22.1985 12.5027 20.6194 12.5027H11.9753Z" stroke="#E3E3E3" stroke-width="1.40372"/>
<circle id="Ellipse 1" cx="25.0891" cy="21.4667" r="4.8145" stroke="#E3E3E3" stroke-width="1.40372"/>
</g>
</svg>
